<?xml version="1.0" encoding="utf-8"?>
<!-- Generator: Adobe Illustrator 16.0.0, SVG Export Plug-In . SVG Version: 6.00 Build 0)  -->
<!DOCTYPE svg PUBLIC "-//W3C//DTD SVG 1.1//EN" "http://www.w3.org/Graphics/SVG/1.1/DTD/svg11.dtd">
<svg version="1.1" xmlns="http://www.w3.org/2000/svg" xmlns:xlink="http://www.w3.org/1999/xlink" x="0px" y="0px"
	 width="1190.55px" height="792.851px" viewBox="0 0 1190.55 792.851" enable-background="new 0 0 1190.55 792.851"
	 xml:space="preserve">
<g id="Ebene_1">
	<g>
		<g>
			<rect y="-0.187" opacity="0.6627" fill="#ECBE4D" width="1189.725" height="793.147"/>
			<polygon opacity="0.6627" fill="#6B3820" points="13.632,55.627 0,-0.187 14.253,179.003 			"/>
			<polygon opacity="0.6627" fill="#E8B452" points="0,396.385 48.333,520.499 83.653,380.963 			"/>
			<polygon opacity="0.6627" fill="#DD9E47" points="430.653,652.687 393.473,726.868 432.51,739.353 			"/>
			<polygon opacity="0.6627" fill="#B67132" points="1188.954,554.641 1176.781,774.825 1189.531,792.981 			"/>
			<polygon opacity="0.6627" fill="#713C22" points="13.632,55.627 22.927,115.114 61.342,54.892 			"/>
			<polygon opacity="0.6627" fill="#B36F31" points="0,-0.187 0,396.385 14.253,179.003 			"/>
			<polygon opacity="0.6627" fill="#CA984C" points="17.97,522.704 0,792.96 19.831,678.397 			"/>
			<polygon opacity="0.6627" fill="#E9C96C" points="0,396.385 0,792.96 17.97,522.704 			"/>
			<polygon opacity="0.6627" fill="#8A4D2A" points="13.632,55.627 14.253,179.003 22.927,115.114 			"/>
			<polygon opacity="0.6627" fill="#7F4426" points="61.342,54.892 87.988,105.566 102.244,59.3 			"/>
			<polygon opacity="0.6627" fill="#E09F43" points="32.842,291.37 0,396.385 83.653,380.963 			"/>
			<polygon opacity="0.6627" fill="#D48B38" points="14.253,179.003 0,396.385 32.842,291.37 			"/>
			<polygon opacity="0.6627" fill="#A66330" points="22.927,115.114 14.253,179.003 32.219,172.397 			"/>
			<polygon opacity="0.6627" fill="#CB8234" points="14.253,179.003 32.842,291.37 47.714,237.757 			"/>
			<polygon opacity="0.6627" fill="#BD7632" points="32.219,172.397 14.253,179.003 47.714,237.757 			"/>
			<polygon opacity="0.6627" fill="#D09A4E" points="84.274,607.16 19.831,678.397 134.462,685.733 			"/>
			<polygon opacity="0.6627" fill="#C47C32" points="48.333,520.499 17.97,522.704 84.274,607.16 			"/>
			<polygon opacity="0.6627" fill="#B77031" points="0,396.385 17.97,522.704 48.333,520.499 			"/>
			<polygon opacity="0.6627" fill="#542D17" points="0,-0.187 13.632,55.627 61.342,54.892 			"/>
			<polygon opacity="0.6627" fill="#5D311A" points="0,-0.187 61.342,54.892 102.244,59.3 			"/>
			<polygon opacity="0.6627" fill="#E7B351" points="83.653,380.963 137.558,488.921 154.91,367.749 			"/>
			<polygon opacity="0.6627" fill="#96542D" points="17.97,522.704 19.831,678.397 84.274,607.16 			"/>
			<polygon opacity="0.6627" fill="#AA6E32" points="19.831,678.397 0,792.96 134.462,685.733 			"/>
			<polygon opacity="0.6627" fill="#E4A54A" points="123.928,223.069 83.653,380.963 154.91,367.749 			"/>
			<polygon opacity="0.6627" fill="#CA7F32" points="32.219,172.397 123.928,223.069 128.266,151.099 			"/>
			<polygon opacity="0.6627" fill="#854828" points="61.342,54.892 22.927,115.114 87.988,105.566 			"/>
			<polygon opacity="0.6627" fill="#9E5B2F" points="22.927,115.114 32.219,172.397 87.988,105.566 			"/>
			<polygon opacity="0.6627" fill="#B16931" points="87.988,105.566 32.219,172.397 128.266,151.099 			"/>
			<polygon opacity="0.6627" fill="#5E331B" points="0,-0.187 102.244,59.3 161.724,35.064 			"/>
			<polygon opacity="0.6627" fill="#CC8334" points="32.219,172.397 47.714,237.757 123.928,223.069 			"/>
			<polygon opacity="0.6627" fill="#E29E44" points="32.842,291.37 83.653,380.963 123.928,223.069 			"/>
			<polygon opacity="0.6627" fill="#D8903D" points="47.714,237.757 32.842,291.37 123.928,223.069 			"/>
			<polygon opacity="0.6627" fill="#DEB561" points="137.558,488.921 84.274,607.16 182.172,647.552 			"/>
			<polygon opacity="0.6627" fill="#E3A34B" points="177.218,207.644 123.928,223.069 204.481,303.115 			"/>
			<polygon opacity="0.6627" fill="#E6B859" points="83.653,380.963 48.333,520.499 137.558,488.921 			"/>
			<polygon opacity="0.6627" fill="#C4853D" points="48.333,520.499 84.274,607.16 137.558,488.921 			"/>
			<polygon opacity="0.6627" fill="#CF9A4F" points="84.274,607.16 134.462,685.733 182.172,647.552 			"/>
			<polygon opacity="0.6627" fill="#C87A31" points="162.348,92.347 128.266,151.099 177.218,207.644 			"/>
			<polygon opacity="0.6627" fill="#D88F3C" points="128.266,151.099 123.928,223.069 177.218,207.644 			"/>
			<polygon opacity="0.6627" fill="#BC622F" points="277.602,110.708 317.255,181.942 359.394,50.485 			"/>
			<polygon opacity="0.6627" fill="#904F2B" points="102.244,59.3 87.988,105.566 162.348,92.347 			"/>
			<polygon opacity="0.6627" fill="#AD6330" points="87.988,105.566 128.266,151.099 162.348,92.347 			"/>
			<polygon opacity="0.6627" fill="#824828" points="161.724,35.064 102.244,59.3 162.348,92.347 			"/>
			<polygon opacity="0.6627" fill="#E6A94F" points="123.928,223.069 154.91,367.749 204.481,303.115 			"/>
			<polygon opacity="0.6627" fill="#E3A03F" points="245.999,248.775 298.048,284.021 317.255,181.942 			"/>
			<polygon opacity="0.6627" fill="#E8B95A" points="154.91,367.749 137.558,488.921 208.817,447.795 			"/>
			<polygon opacity="0.6627" fill="#D9AC60" points="182.172,647.552 250.334,673.986 272.026,579.988 			"/>
			<polygon opacity="0.6627" fill="#B77031" points="257.771,676.93 208.2,728.33 279.461,767.256 			"/>
			<polygon opacity="0.6627" fill="#BD7F38" points="182.172,647.552 134.462,685.733 208.2,728.33 			"/>
			<polygon opacity="0.6627" fill="#DA862E" points="277.602,110.708 245.999,248.775 317.255,181.942 			"/>
			<polygon opacity="0.6627" fill="#A16130" points="134.462,685.733 0,792.96 208.2,728.33 			"/>
			<polygon opacity="0.6627" fill="#D18531" points="389.76,726.134 387.276,726.868 393.473,726.868 			"/>
			<polygon opacity="0.6627" fill="#C68338" points="250.334,673.986 208.2,728.33 257.771,676.93 			"/>
			<polygon opacity="0.6627" fill="#884A2A" points="161.724,35.064 162.348,92.347 248.477,53.422 			"/>
			<polygon opacity="0.6627" fill="#96542D" points="208.2,728.33 0,792.96 279.461,767.256 			"/>
			<polygon opacity="0.6627" fill="#E4A54B" points="177.218,207.644 204.481,303.115 245.999,248.775 			"/>
			<polygon opacity="0.6627" fill="#8C4329" points="359.394,50.485 413.304,102.627 451.103,29.922 			"/>
			<polygon opacity="0.6627" fill="#C4853D" points="182.172,647.552 208.2,728.33 250.334,673.986 			"/>
			<polygon opacity="0.6627" fill="#D18631" points="387.276,723.192 389.76,726.134 393.473,726.868 			"/>
			<polygon opacity="0.6627" fill="#E9BB58" points="204.481,303.115 154.91,367.749 254.674,424.288 			"/>
			<polygon opacity="0.6627" fill="#E9C15F" points="154.91,367.749 208.817,447.795 254.674,424.288 			"/>
			<polygon opacity="0.6627" fill="#DBAE62" points="250.334,673.986 257.771,676.93 272.026,579.988 			"/>
			<polygon opacity="0.6627" fill="#C4853D" points="137.558,488.921 182.172,647.552 272.026,579.988 			"/>
			<polygon opacity="0.6627" fill="#E9C56A" points="208.817,447.795 137.558,488.921 272.026,579.988 			"/>
			<polygon opacity="0.6627" fill="#DD8E35" points="177.218,207.644 245.999,248.775 277.602,110.708 			"/>
			<polygon opacity="0.6627" fill="#C57230" points="162.348,92.347 177.218,207.644 277.602,110.708 			"/>
			<polygon opacity="0.6627" fill="#A3562E" points="248.477,53.422 162.348,92.347 277.602,110.708 			"/>
			<polygon opacity="0.6627" fill="#EDD16E" points="254.674,424.288 208.817,447.795 283.178,482.313 			"/>
			<polygon opacity="0.6627" fill="#DDB654" points="208.817,447.795 272.026,579.988 283.178,482.313 			"/>
			<polygon opacity="0.6627" fill="#D18732" points="376.743,719.523 374.264,720.994 387.276,726.868 			"/>
			<polygon opacity="0.6627" fill="#ECC65F" points="204.481,303.115 254.674,424.288 292.472,402.257 			"/>
			<polygon opacity="0.6627" fill="#EABC57" points="204.481,303.115 292.472,402.257 298.048,284.021 			"/>
			<polygon opacity="0.6627" fill="#F0D672" points="254.674,424.288 283.178,482.313 292.472,402.257 			"/>
			<polygon opacity="0.6627" fill="#E6AB4D" points="245.999,248.775 204.481,303.115 298.048,284.021 			"/>
			<polygon opacity="0.6627" fill="#EDD368" points="283.178,482.313 272.026,579.988 333.989,555.747 			"/>
			<polygon opacity="0.6627" fill="#C47C32" points="257.771,676.93 279.461,767.256 337.086,707.767 			"/>
			<polygon opacity="0.6627" fill="#C89D47" points="333.989,555.747 272.026,579.988 337.086,707.767 			"/>
			<polygon opacity="0.6627" fill="#DEAF60" points="272.026,579.988 257.771,676.93 337.086,707.767 			"/>
			<polygon opacity="0.6627" fill="#F8F085" points="524.217,480.843 464.112,507.284 535.994,577.778 			"/>
			<polygon opacity="0.6627" fill="#9B4E2D" points="248.477,53.422 277.602,110.708 359.394,50.485 			"/>
			<polygon opacity="0.6627" fill="#ECC257" points="298.048,284.021 292.472,402.257 356.296,322.21 			"/>
			<polygon opacity="0.6627" fill="#DC9A42" points="430.653,652.687 432.51,739.353 480.223,754.032 			"/>
			<polygon opacity="0.6627" fill="#A1502E" points="413.304,102.627 483.943,176.07 493.237,53.422 			"/>
			<polygon opacity="0.6627" fill="#824327" points="161.724,35.064 248.477,53.422 359.394,50.485 			"/>
			<polygon opacity="0.6627" fill="#D18431" points="393.473,726.868 387.276,726.868 432.51,739.353 			"/>
			<polygon opacity="0.6627" fill="#D28934" points="371.783,716.583 337.086,707.767 374.264,720.994 			"/>
			<polygon opacity="0.6627" fill="#C67831" points="337.086,707.767 279.461,767.256 374.264,720.994 			"/>
			<polygon opacity="0.6627" fill="#ECBD4F" points="396.571,278.15 356.296,322.21 407.723,409.61 			"/>
			<polygon opacity="0.6627" fill="#F4D762" points="283.178,482.313 333.989,555.747 374.885,538.855 			"/>
			<polygon opacity="0.6627" fill="#C47330" points="387.276,726.868 279.461,767.256 432.51,739.353 			"/>
			<polygon opacity="0.6627" fill="#E8B147" points="298.048,284.021 356.296,322.21 396.571,278.15 			"/>
			<polygon opacity="0.6627" fill="#D28934" points="371.783,716.583 374.264,720.994 376.743,719.523 			"/>
			<polygon opacity="0.6627" fill="#D18732" points="376.743,719.523 387.276,726.868 387.276,723.192 			"/>
			<polygon opacity="0.6627" fill="#C37531" points="374.264,720.994 279.461,767.256 387.276,726.868 			"/>
			<polygon opacity="0.6627" fill="#D97E2D" points="317.255,181.942 396.571,278.15 413.304,102.627 			"/>
			<polygon opacity="0.6627" fill="#B75C2F" points="359.394,50.485 317.255,181.942 413.304,102.627 			"/>
			<polygon opacity="0.6627" fill="#D08431" points="387.276,723.192 387.276,726.868 389.76,726.134 			"/>
			<polygon opacity="0.6627" fill="#DFA049" points="376.743,719.523 387.276,723.192 430.653,652.687 			"/>
			<polygon opacity="0.6627" fill="#F2D062" points="356.296,322.21 292.472,402.257 407.723,409.61 			"/>
			<polygon opacity="0.6627" fill="#E39F3A" points="317.255,181.942 298.048,284.021 396.571,278.15 			"/>
			<polygon opacity="0.6627" fill="#ECBC4A" points="283.178,482.313 374.885,538.855 407.723,409.61 			"/>
			<polygon opacity="0.6627" fill="#F3DF77" points="292.472,402.257 283.178,482.313 407.723,409.61 			"/>
			<polygon opacity="0.6627" fill="#DBA048" points="387.276,723.192 393.473,726.868 430.653,652.687 			"/>
			<polygon opacity="0.6627" fill="#BE9354" points="333.989,555.747 337.086,707.767 430.653,652.687 			"/>
			<polygon opacity="0.6627" fill="#DDA34D" points="337.086,707.767 371.783,716.583 430.653,652.687 			"/>
			<polygon opacity="0.6627" fill="#F4E16F" points="374.885,538.855 333.989,555.747 430.653,652.687 			"/>
			<polygon opacity="0.6627" fill="#DCA14A" points="371.783,716.583 376.743,719.523 430.653,652.687 			"/>
			<polygon opacity="0.6627" fill="#EFC34F" points="606.012,387.574 595.48,457.34 640.711,430.902 			"/>
			<polygon opacity="0.6627" fill="#DB9031" points="549.006,695.289 480.223,754.032 594.86,792.96 			"/>
			<polygon opacity="0.6627" fill="#683A20" points="0,-0.187 161.724,35.064 451.103,29.922 			"/>
			<polygon opacity="0.6627" fill="#803F26" points="161.724,35.064 359.394,50.485 451.103,29.922 			"/>
			<polygon opacity="0.6627" fill="#EFC34F" points="407.723,409.61 374.885,538.855 464.112,507.284 			"/>
			<polygon opacity="0.6627" fill="#F1E18B" points="374.885,538.855 430.653,652.687 464.112,507.284 			"/>
			<polygon opacity="0.6627" fill="#844027" points="451.103,29.922 413.304,102.627 493.237,53.422 			"/>
			<polygon opacity="0.6627" fill="#C57230" points="432.51,739.353 279.461,767.256 480.223,754.032 			"/>
			<polygon opacity="0.6627" fill="#60321B" points="451.103,29.922 493.237,53.422 594.86,-0.187 			"/>
			<polygon opacity="0.6627" fill="#6D341F" points="537.852,85.734 576.89,86.473 594.86,-0.187 			"/>
			<polygon opacity="0.6627" fill="#703721" points="594.86,-0.187 576.89,86.473 595.48,90.878 			"/>
			<polygon opacity="0.6627" fill="#D0782F" points="413.304,102.627 396.571,278.15 483.943,176.07 			"/>
			<polygon opacity="0.6627" fill="#D9842E" points="396.571,278.15 470.93,260.525 483.943,176.07 			"/>
			<polygon opacity="0.6627" fill="#F1D363" points="407.723,409.61 464.112,507.284 503.771,373.618 			"/>
			<polygon opacity="0.6627" fill="#E9BA4E" points="396.571,278.15 407.723,409.61 503.771,373.618 			"/>
			<polygon opacity="0.6627" fill="#E3A23A" points="470.93,260.525 396.571,278.15 503.771,373.618 			"/>
			<polygon opacity="0.6627" fill="#F1E392" points="464.112,507.284 508.729,605.688 535.994,577.778 			"/>
			<polygon opacity="0.6627" fill="#F3D664" points="503.771,373.618 464.112,507.284 524.217,480.843 			"/>
			<polygon opacity="0.6627" fill="#E4C87E" points="464.112,507.284 430.653,652.687 508.729,605.688 			"/>
			<polygon opacity="0.6627" fill="#E4A43B" points="591.141,314.135 562.637,334.699 606.012,387.574 			"/>
			<polygon opacity="0.6627" fill="#F8F4B0" points="589.905,533.714 535.994,577.778 596.102,654.895 			"/>
			<polygon opacity="0.6627" fill="#944A2C" points="493.237,53.422 483.943,176.07 537.852,85.734 			"/>
			<polygon opacity="0.6627" fill="#CF772F" points="483.943,176.07 470.93,260.525 537.234,245.099 			"/>
			<polygon opacity="0.6627" fill="#F2DC97" points="508.729,605.688 430.653,652.687 549.006,695.289 			"/>
			<polygon opacity="0.6627" fill="#E4B45C" points="430.653,652.687 480.223,754.032 549.006,695.289 			"/>
			<polygon opacity="0.6627" fill="#69351F" points="493.237,53.422 537.852,85.734 594.86,-0.187 			"/>
			<polygon opacity="0.6627" fill="#F4DF6D" points="524.217,480.843 589.905,533.714 595.48,457.34 			"/>
			<polygon opacity="0.6627" fill="#DB872E" points="537.234,245.099 470.93,260.525 562.637,334.699 			"/>
			<polygon opacity="0.6627" fill="#E3A038" points="470.93,260.525 503.771,373.618 562.637,334.699 			"/>
			<polygon opacity="0.6627" fill="#ECBC4A" points="503.771,373.618 595.48,457.34 606.012,387.574 			"/>
			<polygon opacity="0.6627" fill="#924A2B" points="595.48,90.878 576.89,86.473 597.955,170.192 			"/>
			<polygon opacity="0.6627" fill="#C9712F" points="480.223,754.032 279.461,767.256 594.86,792.96 			"/>
			<polygon opacity="0.6627" fill="#F7EF86" points="524.217,480.843 535.994,577.778 589.905,533.714 			"/>
			<polygon opacity="0.6627" fill="#E7AC42" points="562.637,334.699 503.771,373.618 606.012,387.574 			"/>
			<polygon opacity="0.6627" fill="#91492B" points="689.044,71.052 664.258,76.189 692.762,109.237 			"/>
			<polygon opacity="0.6627" fill="#DD8D2F" points="537.234,245.099 562.637,334.699 591.141,314.135 			"/>
			<polygon opacity="0.6627" fill="#D49D3C" points="1083.764,418.416 1110.406,513.891 1189.725,396.385 			"/>
			<polygon opacity="0.6627" fill="#69341F" points="0,-0.187 451.103,29.922 594.86,-0.187 			"/>
			<polygon opacity="0.6627" fill="#F3E2A1" points="508.729,605.688 549.006,695.289 596.102,654.895 			"/>
			<polygon opacity="0.6627" fill="#F1CB56" points="503.771,373.618 524.217,480.843 595.48,457.34 			"/>
			<polygon opacity="0.6627" fill="#CD752F" points="537.234,245.099 591.141,314.135 597.955,170.192 			"/>
			<polygon opacity="0.6627" fill="#91492B" points="576.89,86.473 537.852,85.734 597.955,170.192 			"/>
			<polygon opacity="0.6627" fill="#F8F1B6" points="535.994,577.778 508.729,605.688 596.102,654.895 			"/>
			<polygon opacity="0.6627" fill="#BF6830" points="483.943,176.07 537.234,245.099 597.955,170.192 			"/>
			<polygon opacity="0.6627" fill="#A7562E" points="537.852,85.734 483.943,176.07 597.955,170.192 			"/>
			<polygon opacity="0.6627" fill="#7B3D25" points="658.682,23.315 664.258,76.189 689.044,71.052 			"/>
			<polygon opacity="0.6627" fill="#783A24" points="658.682,23.315 595.48,90.878 664.258,76.189 			"/>
			<polygon opacity="0.6627" fill="#F4D762" points="595.48,457.34 589.905,533.714 640.711,430.902 			"/>
			<polygon opacity="0.6627" fill="#E8C06D" points="596.102,654.895 549.006,695.289 644.431,741.55 			"/>
			<polygon opacity="0.6627" fill="#64331D" points="594.86,-0.187 595.48,90.878 658.682,23.315 			"/>
			<polygon opacity="0.6627" fill="#D57E2F" points="597.955,170.192 591.141,314.135 678.509,262.729 			"/>
			<polygon opacity="0.6627" fill="#F1E392" points="703.915,525.639 693.386,615.233 749.772,642.407 			"/>
			<polygon opacity="0.6627" fill="#EDDA93" points="648.151,592.473 685.95,705.57 693.386,615.233 			"/>
			<polygon opacity="0.6627" fill="#DB9636" points="549.006,695.289 594.86,792.96 644.431,741.55 			"/>
			<polygon opacity="0.6627" fill="#F8F4AE" points="589.905,533.714 596.102,654.895 648.151,592.473 			"/>
			<polygon opacity="0.6627" fill="#F0D35E" points="692.762,400.061 640.711,430.902 703.915,525.639 			"/>
			<polygon opacity="0.6627" fill="#CF9B42" points="764.643,362.605 872.459,422.825 904.683,287.697 			"/>
			<polygon opacity="0.6627" fill="#974C2C" points="595.48,90.878 597.955,170.192 664.258,76.189 			"/>
			<polygon opacity="0.6627" fill="#E19C37" points="591.141,314.135 606.012,387.574 678.509,262.729 			"/>
			<polygon opacity="0.6627" fill="#DFB25C" points="596.102,654.895 644.431,741.55 685.95,705.57 			"/>
			<polygon opacity="0.6627" fill="#EFD996" points="648.151,592.473 596.102,654.895 685.95,705.57 			"/>
			<polygon opacity="0.6627" fill="#D79C41" points="783.23,237.757 764.643,362.605 904.683,287.697 			"/>
			<polygon opacity="0.6627" fill="#D4B169" points="804.921,597.609 749.772,642.407 826.604,732.746 			"/>
			<polygon opacity="0.6627" fill="#CD9A4D" points="749.772,642.407 685.95,705.57 826.604,732.746 			"/>
			<polygon opacity="0.6627" fill="#A2542E" points="664.258,76.189 597.955,170.192 692.762,109.237 			"/>
			<polygon opacity="0.6627" fill="#B7652F" points="692.762,109.237 697.1,166.523 744.812,108.503 			"/>
			<polygon opacity="0.6627" fill="#F6ED99" points="648.151,592.473 693.386,615.233 703.915,525.639 			"/>
			<polygon opacity="0.6627" fill="#E29E3D" points="678.509,262.729 723.744,312.666 783.23,237.757 			"/>
			<polygon opacity="0.6627" fill="#ECBE4D" points="606.012,387.574 640.711,430.902 692.762,400.061 			"/>
			<polygon opacity="0.6627" fill="#E6AA41" points="678.509,262.729 606.012,387.574 692.762,400.061 			"/>
			<polygon opacity="0.6627" fill="#B56330" points="692.762,109.237 597.955,170.192 697.1,166.523 			"/>
			<polygon opacity="0.6627" fill="#CE7930" points="597.955,170.192 678.509,262.729 697.1,166.523 			"/>
			<polygon opacity="0.6627" fill="#F4E16F" points="640.711,430.902 589.905,533.714 703.915,525.639 			"/>
			<polygon opacity="0.6627" fill="#F6ED8F" points="589.905,533.714 648.151,592.473 703.915,525.639 			"/>
			<polygon opacity="0.6627" fill="#994D2D" points="689.044,71.052 744.812,108.503 776.413,63.706 			"/>
			<polygon opacity="0.6627" fill="#7E3E26" points="658.682,23.315 689.044,71.052 776.413,63.706 			"/>
			<polygon opacity="0.6627" fill="#E5A742" points="678.509,262.729 692.762,400.061 723.744,312.666 			"/>
			<polygon opacity="0.6627" fill="#A1532E" points="689.044,71.052 692.762,109.237 744.812,108.503 			"/>
			<polygon opacity="0.6627" fill="#DB8E31" points="697.1,166.523 678.509,262.729 783.23,237.757 			"/>
			<polygon opacity="0.6627" fill="#E3A745" points="723.744,312.666 764.643,362.605 783.23,237.757 			"/>
			<polygon opacity="0.6627" fill="#E4C87E" points="693.386,615.233 685.95,705.57 749.772,642.407 			"/>
			<polygon opacity="0.6627" fill="#EECB5E" points="692.762,400.061 703.915,525.639 764.643,362.605 			"/>
			<polygon opacity="0.6627" fill="#E7B54C" points="723.744,312.666 692.762,400.061 764.643,362.605 			"/>
			<polygon opacity="0.6627" fill="#EFDE7E" points="703.915,525.639 804.921,597.609 836.522,514.625 			"/>
			<polygon opacity="0.6627" fill="#CE7C30" points="744.812,108.503 697.1,166.523 783.23,237.757 			"/>
			<polygon opacity="0.6627" fill="#A76530" points="826.604,732.746 644.431,741.55 863.168,766.525 			"/>
			<polygon opacity="0.6627" fill="#C38234" points="685.95,705.57 644.431,741.55 826.604,732.746 			"/>
			<polygon opacity="0.6627" fill="#F1E18B" points="703.915,525.639 749.772,642.407 804.921,597.609 			"/>
			<polygon opacity="0.6627" fill="#944E2C" points="878.654,66.641 930.092,119.517 949.295,70.317 			"/>
			<polygon opacity="0.6627" fill="#763C24" points="658.682,23.315 776.413,63.706 851.395,24.78 			"/>
			<polygon opacity="0.6627" fill="#EDD368" points="764.643,362.605 703.915,525.639 836.522,514.625 			"/>
			<polygon opacity="0.6627" fill="#5F301A" points="594.86,-0.187 658.682,23.315 851.395,24.78 			"/>
			<polygon opacity="0.6627" fill="#B16030" points="776.413,63.706 744.812,108.503 842.101,164.315 			"/>
			<polygon opacity="0.6627" fill="#CD7B31" points="744.812,108.503 783.23,237.757 842.101,164.315 			"/>
			<polygon opacity="0.6627" fill="#B36D32" points="842.101,164.315 904.683,287.697 930.092,119.517 			"/>
			<polygon opacity="0.6627" fill="#65371E" points="594.86,-0.187 851.395,24.78 1189.725,-0.187 			"/>
			<polygon opacity="0.6627" fill="#DDB654" points="764.643,362.605 836.522,514.625 872.459,422.825 			"/>
			<polygon opacity="0.6627" fill="#844528" points="851.395,24.78 776.413,63.706 878.654,66.641 			"/>
			<polygon opacity="0.6627" fill="#A8582E" points="776.413,63.706 842.101,164.315 878.654,66.641 			"/>
			<polygon opacity="0.6627" fill="#A6592E" points="878.654,66.641 842.101,164.315 930.092,119.517 			"/>
			<polygon opacity="0.6627" fill="#C68232" points="842.101,164.315 783.23,237.757 904.683,287.697 			"/>
			<polygon opacity="0.6627" fill="#D5B76E" points="836.522,514.625 804.921,597.609 912.736,668.85 			"/>
			<polygon opacity="0.6627" fill="#844728" points="851.395,24.78 878.654,66.641 949.295,70.317 			"/>
			<polygon opacity="0.6627" fill="#945E2F" points="826.604,732.746 863.168,766.525 912.736,668.85 			"/>
			<polygon opacity="0.6627" fill="#BE9354" points="804.921,597.609 826.604,732.746 912.736,668.85 			"/>
			<polygon opacity="0.6627" fill="#784325" points="851.395,24.78 949.295,70.317 1003.204,22.581 			"/>
			<polygon opacity="0.6627" fill="#7C4526" points="1003.204,22.581 949.295,70.317 1030.47,76.189 			"/>
			<polygon opacity="0.6627" fill="#5D331B" points="1142.009,83.533 1174.227,111.44 1189.725,-0.187 			"/>
			<polygon opacity="0.6627" fill="#89572C" points="912.736,668.85 863.168,766.525 932.562,727.603 			"/>
			<polygon opacity="0.6627" fill="#C89D47" points="872.459,422.825 836.522,514.625 952.394,463.95 			"/>
			<polygon opacity="0.6627" fill="#B68438" points="952.394,463.95 961.065,573.376 1003.204,492.593 			"/>
			<polygon opacity="0.6627" fill="#BF9445" points="952.394,463.95 836.522,514.625 961.065,573.376 			"/>
			<polygon opacity="0.6627" fill="#C49E59" points="836.522,514.625 912.736,668.85 961.065,573.376 			"/>
			<polygon opacity="0.6627" fill="#B07934" points="904.683,287.697 872.459,422.825 971.603,304.589 			"/>
			<polygon opacity="0.6627" fill="#B17C34" points="872.459,422.825 952.394,463.95 971.603,304.589 			"/>
			<polygon opacity="0.6627" fill="#A4783E" points="961.065,573.376 912.736,668.85 973.466,705.57 			"/>
			<polygon opacity="0.6627" fill="#94532C" points="930.092,119.517 1013.119,229.677 1030.47,76.189 			"/>
			<polygon opacity="0.6627" fill="#A26931" points="1013.119,229.677 971.603,304.589 1052.158,319.273 			"/>
			<polygon opacity="0.6627" fill="#8B5C2E" points="912.736,668.85 932.562,727.603 973.466,705.57 			"/>
			<polygon opacity="0.6627" fill="#BB7832" points="1173.004,769.717 1176.875,774.856 1189.099,554.279 			"/>
			<polygon opacity="0.6627" fill="#D39840" points="1141.385,638.734 1173.004,769.717 1189.099,554.279 			"/>
			<polygon opacity="0.6627" fill="#A06230" points="930.092,119.517 904.683,287.697 1013.119,229.677 			"/>
			<polygon opacity="0.6627" fill="#A06831" points="904.683,287.697 971.603,304.589 1013.119,229.677 			"/>
			<polygon opacity="0.6627" fill="#8B4A2A" points="949.295,70.317 930.092,119.517 1030.47,76.189 			"/>
			<polygon opacity="0.6627" fill="#B7883B" points="1003.204,492.593 961.065,573.376 1041.623,618.911 			"/>
			<polygon opacity="0.6627" fill="#AB7E3E" points="961.065,573.376 973.466,705.57 1041.623,618.911 			"/>
			<polygon opacity="0.6627" fill="#A67032" points="971.603,304.589 952.394,463.95 1052.158,319.273 			"/>
			<polygon opacity="0.6627" fill="#8C562C" points="973.466,705.57 1069.897,773.747 1085.618,675.458 			"/>
			<polygon opacity="0.6627" fill="#B27B34" points="1052.158,319.273 952.394,463.95 1083.764,418.416 			"/>
			<polygon opacity="0.6627" fill="#6D3C21" points="932.562,727.603 816.417,792.71 1085.956,792.96 			"/>
			<polygon opacity="0.6627" fill="#8C562C" points="973.466,705.57 1085.956,792.96 1085.956,785.035 			"/>
			<polygon opacity="0.6627" fill="#754325" points="973.466,705.57 932.562,727.603 1085.956,792.96 			"/>
			<polygon opacity="0.6627" fill="#B58035" points="952.394,463.95 1003.204,492.593 1083.764,418.416 			"/>
			<polygon opacity="0.6627" fill="#E1B14A" points="1110.406,513.891 1141.385,638.734 1189.099,554.279 			"/>
			<polygon opacity="0.6627" fill="#A57333" points="1041.623,618.911 973.466,705.57 1085.618,675.458 			"/>
			<polygon opacity="0.6627" fill="#8B512A" points="1069.897,773.747 1085.956,785.035 1085.618,675.458 			"/>
			<polygon opacity="0.6627" fill="#94552C" points="1085.618,675.458 1107.437,792.96 1119,792.96 			"/>
			<polygon opacity="0.6627" fill="#A66B31" points="1013.119,229.677 1052.158,319.273 1086.242,195.163 			"/>
			<line opacity="0.6627" fill="#8E532B" x1="1085.984" y1="771.556" x2="1085.618" y2="675.458"/>
			<polygon opacity="0.6627" fill="#97592E" points="1030.47,76.189 1013.119,229.677 1086.242,195.163 			"/>
			<polygon opacity="0.6627" fill="#8F522C" points="1085.618,675.458 1085.956,792.96 1096.199,792.96 			"/>
			<polygon opacity="0.6627" fill="#8D502B" points="1085.618,675.458 1096.199,792.96 1107.437,792.96 			"/>
			<polygon opacity="0.6627" fill="#5F381D" points="851.395,24.78 1003.204,22.581 1189.725,-0.187 			"/>
			<polygon opacity="0.6627" fill="#693B20" points="1137.058,24.045 1030.47,76.189 1142.009,83.533 			"/>
			<polygon opacity="0.6627" fill="#C4943D" points="1003.204,492.593 1041.623,618.911 1110.406,513.891 			"/>
			<polygon opacity="0.6627" fill="#C79339" points="1083.764,418.416 1003.204,492.593 1110.406,513.891 			"/>
			<polygon opacity="0.6627" fill="#DEA742" points="1110.406,513.891 1189.099,554.279 1189.725,396.385 			"/>
			<polygon opacity="0.6627" fill="#BE8234" points="1052.158,319.273 1083.764,418.416 1124.035,359.667 			"/>
			<polygon opacity="0.6627" fill="#844A29" points="1030.47,76.189 1086.242,195.163 1142.009,83.533 			"/>
			<polygon opacity="0.6627" fill="#8A572C" points="1189.725,-0.187 1174.227,111.44 1189.725,396.385 			"/>
			<polygon opacity="0.6627" fill="#94552D" points="1085.618,675.458 1119,792.96 1135.525,792.96 			"/>
			<polygon opacity="0.6627" fill="#65391F" points="1003.204,22.581 1030.47,76.189 1137.058,24.045 			"/>
			<polygon opacity="0.6627" fill="#D3A246" points="1110.406,513.891 1041.623,618.911 1141.385,638.734 			"/>
			<polygon opacity="0.6627" fill="#4F2C18" points="1137.058,24.045 1142.009,83.533 1189.725,-0.187 			"/>
			<polygon opacity="0.6627" fill="#B47633" points="1085.618,675.458 1135.525,792.96 1141.385,638.734 			"/>
			<polygon opacity="0.6627" fill="#C49041" points="1041.623,618.911 1085.618,675.458 1141.385,638.734 			"/>
			<polygon opacity="0.6627" fill="#965D2E" points="1086.242,195.163 1162.457,218.66 1174.227,111.44 			"/>
			<polygon opacity="0.6627" fill="#AD7132" points="1086.242,195.163 1052.158,319.273 1162.457,218.66 			"/>
			<polygon opacity="0.6627" fill="#BA7C33" points="1052.158,319.273 1124.035,359.667 1162.457,218.66 			"/>
			<polygon opacity="0.6627" fill="#844D29" points="1142.009,83.533 1086.242,195.163 1174.227,111.44 			"/>
			<polygon opacity="0.6627" fill="#4D2C19" points="1003.204,22.581 1137.058,24.045 1189.725,-0.187 			"/>
			<polygon opacity="0.6627" fill="#C18134" points="1162.457,218.66 1124.035,359.667 1189.725,396.385 			"/>
			<polygon opacity="0.6627" fill="#A76F32" points="1174.227,111.44 1162.457,218.66 1189.725,396.385 			"/>
			<polygon opacity="0.6627" fill="#CC8D35" points="1124.035,359.667 1083.764,418.416 1189.725,396.385 			"/>
			<polygon opacity="0.6627" fill="#754325" points="1141.385,638.734 1179.094,792.981 1179.031,792.981 1135.525,792.96 			"/>
			<polygon opacity="0.6627" fill="#96542D" points="279.461,767.256 6,792.043 594.86,792.96 			"/>
			<polygon opacity="0.6627" fill="#754325" points="644.466,741.07 594.86,792.96 863.168,766.525 			"/>
			<polygon opacity="0.6627" fill="#A76530" points="863.168,766.525 594.86,792.96 818.111,792.753 			"/>
			<polygon opacity="0.6627" fill="#CA984C" points="0,396.385 0,792.47 17.97,522.704 			"/>
			<polygon opacity="0.6627" fill="#B77031" points="17.97,522.704 0,667.543 19.961,678.756 			"/>
			<polygon opacity="0.6627" fill="#754325" points="0,-0.187 0,200.418 14.253,179.003 			"/>
			<polygon opacity="0.6627" fill="#754325" points="17.97,522.704 0,665.221 0,397.725 			"/>
			<polygon opacity="0.6627" fill="#754325" points="0,667.543 0,792.958 19.903,678.61 			"/>
			<polygon opacity="0.6627" fill="#6B3317" points="1173.541,770.251 1179.094,792.997 1189.725,792.976 			"/>
			<polygon opacity="0.6627" fill="#754325" points="596.302,792.784 816.785,792.926 863.094,766.559 784.905,774.091 			"/>
		</g>
	</g>
</g>
<g id="ahorn">
	<g>
		<g>
			<path opacity="0.6627" fill="#F9F39F" d="M507.986,497.107c-3.785-15.574,9.773-48.007,45.323-45.39
				c0,0-7.756-33.03,28.852-43.03c0,0-32.523-10.507-32.196-30.654c0,0-31.283-11.269-21.388-38.417c0,0-71.295,18.467-76.876,0.031
				c-5.586-18.44,9.412-28.54,16.829-34.194c7.427-5.652,24.317-13.929,33.171-20.481c8.856-6.547,50.563-19.768,57.724-24.254
				c7.153-4.492-29.583-0.938-39.081-4.951c-9.493-4.014-14.104-3.154-19.203-18.974c-3.284-10.172,2.432-20.141,19.442-24.819
				c0,0-1.536-4.033-6.475-11.903c-4.938-7.873-4.682-17.006,0.946-25.523c5.629-8.517,1.927-19.402,11.36-32.577
				c2.509-3.512,13.517-18.695,3.68-14.625c-14.828,6.136-39.342,33.501-39.819,16.845c0,0-24.573,7.048-22.817-13.996
				c0,0-21.294,26.738-31.077,15.918c-9.774-10.816-18.381-13.4-12.399-26.124c0,0-4.055-13.174-26.853,35.465
				c-17.656,37.673-35.461,48.541-49.769,57.519c-7.475,4.688-9.628-3.127-10.719-14.413c-1.095-11.276,1.804-36.874,6.887-51.032
				c5.076-14.155,10.396-44.586,12.078-54.617c0,0-34.361,1.355-27.875-29.64c0,0-25.074,11.168-23.319-9.878
				c0,0-9.781-51.278-13.524-53.352c-3.741-2.063-27.898,76.338-43.354,42.164c0,0-20.802,39.972-36.008,47.515
				c-15.215,7.552-15.127,4.507-20.234,2.726c-5.112-1.78-26.928-24.587-26.928-24.587s4.633,25.606,9.304,34.647
				c4.668,9.032,1.377,18.087-2.643,27.585c-4.012,9.497-14.605-5.298-9.483,4.456c5.119,9.754,11.157,28.405,8.841,35.84
				c-2.315,7.437,2.708,12.262-0.33,20.149c-2.932,7.643-0.826,13.863-7.06,21.975c-9.228,1.728-26.952,4.021-29.887-1.022
				c-20.961-36.013-17.394-22.425-20.694-10.602c-5.124,18.365-67.387-42.234-71.542-35.291
				c-4.163,6.952,11.735,31.64,35.581,69.378c23.837,37.742,10.213,34.314-3.907,33.38c-22.5-1.491-18.464,5.28,4.971,14.71
				c23.438,9.435,34.898,22.673,26.834,28.049c-8.063,5.379-67.008,8.676-3.19,30.487c12.299,4.204,18.205,6.688,26.159,11.003
				c-0.082,1.386,3.789,4.675,3.624,6.08c-1.235,10.745-2.568,9.675-6.69,13.168c-13.686,11.575-40.611,43.503-41.04,44.617
				c-3.029,7.885,54.289,5.02,69.837,5.932c71.49,4.233,71.875,15.9,74.929,23.954c3.056,8.06,0.129,2.506,5.606,22.828
				c2.677,9.93-0.419,23.819,3.366,39.396c3.781,15.575-2.69,29.453-1.063,38.404c1.628,8.957,10.927,27.192,12.372,27.307
				c1.413,0.11,2.412-2.513,7.589-11.74c5.175-9.238,14.366-27.968,29.505-24.498c15.141,3.464,10.778,17.174,23.856,18.944
				c13.078,1.765,7.086,6.523,13.188,14.661c6.105,8.136,18.675,16.825,18.675,16.825c1.149-7.704-7.487-22.848,2.09-21.877
				c9.584,0.969,17.934,12.691,25.536,8.914c7.607-3.769,4.461-8.791,13.528,2.487c9.058,11.262,22.531,30.688,23.062,30.405
				c1.281-0.705,5.096-6.19,3.289-17.022c-1.813-10.833-8.376-27.654-6.16-40.019c2.218-12.361-10.167-30.517-2.929-38.05
				c7.24-7.535,12.602-14.89,42.166-7.501c29.561,7.378,69.327,10.354,73.168,6.945
				C518.663,509.356,511.774,512.686,507.986,497.107z"/>
			<path opacity="0.6627" fill="#F9F39F" d="M0.788,679.265c0,0-1.153,3.074,6.166-4.756c12.254-13.118,64.772-71.23,75.216-81.375
				c10.446-10.147,65.466-69.521,78.229-83.117c12.759-13.586,54.132-64.903,54.101-72.065c-0.06-13.347,11.678,1.806,13.866,8.369
				c3.481,10.443-130.952,141.349-190.485,212.961c-11.715,14.093-11.885,22.943-22.146,36.813
				c-5.663,7.664-8.563,21.024-14.947,24.878C-5.587,724.82,0.794,685.153,0.788,679.265z"/>
		</g>
	</g>
</g>
</svg>
