<?xml version="1.0" encoding="utf-8"?>
<!-- Generator: Adobe Illustrator 16.0.0, SVG Export Plug-In . SVG Version: 6.00 Build 0)  -->
<!DOCTYPE svg PUBLIC "-//W3C//DTD SVG 1.1//EN" "http://www.w3.org/Graphics/SVG/1.1/DTD/svg11.dtd">
<svg version="1.1" id="Layer_1" xmlns="http://www.w3.org/2000/svg" xmlns:xlink="http://www.w3.org/1999/xlink" x="0px" y="0px"
	 width="720px" height="540px" viewBox="0 0 720 540" enable-background="new 0 0 720 540" xml:space="preserve">
<g>
	<defs>
		<rect id="SVGID_1_" width="720" height="540"/>
	</defs>
	<clipPath id="SVGID_2_">
		<use xlink:href="#SVGID_1_"  overflow="visible"/>
	</clipPath>
	<g clip-path="url(#SVGID_2_)">
		<rect fill="#0C404F" width="728" height="546"/>
		<linearGradient id="SVGID_3_" gradientUnits="userSpaceOnUse" x1="146.7876" y1="-89.3662" x2="565.2129" y2="635.3677">
			<stop  offset="0" style="stop-color:#1E5A68"/>
			<stop  offset="0.0475" style="stop-color:#1A5463"/>
			<stop  offset="0.1984" style="stop-color:#124957"/>
			<stop  offset="0.4105" style="stop-color:#0D4251"/>
			<stop  offset="1" style="stop-color:#0C404F"/>
		</linearGradient>
		<rect x="-8" fill="url(#SVGID_3_)" width="728" height="546"/>
		<g opacity="0.7">
			<path opacity="0.8" fill="#104D5D" d="M511.721,62.388c7.184,10.349,4.609,24.614-5.74,31.798s-24.614,4.609-31.798-5.74
				c-7.184-10.35-4.609-24.614,5.74-31.798C490.271,49.463,504.537,52.038,511.721,62.388z M480.048,84.374
				c4.938,7.115,14.746,8.885,21.861,3.946c7.115-4.939,8.886-14.746,3.946-21.861s-14.746-8.886-21.861-3.947
				S475.108,77.258,480.048,84.374z"/>
			<path opacity="0.8" fill="#104D5D" d="M505.299,66.7c4.715,6.792,3.024,16.153-3.767,20.868
				c-6.792,4.714-16.153,3.024-20.868-3.767c-4.714-6.792-3.024-16.153,3.768-20.868C491.223,58.219,500.585,59.909,505.299,66.7z
				 M486.529,79.729c2.471,3.558,7.373,4.443,10.931,1.973c3.558-2.469,4.443-7.373,1.974-10.93
				c-2.47-3.558-7.373-4.443-10.931-1.974S484.061,76.171,486.529,79.729z"/>
			<path opacity="0.8" fill="#104D5D" d="M518.173,57.909c9.653,13.907,6.193,33.075-7.714,42.729
				c-13.906,9.654-33.074,6.193-42.729-7.714c-9.654-13.908-6.193-33.075,7.714-42.729
				C489.351,40.542,508.519,44.001,518.173,57.909z M473.596,88.853c7.408,10.672,22.119,13.328,32.792,5.919
				s13.328-22.12,5.92-32.792c-7.409-10.673-22.119-13.329-32.792-5.92S466.187,78.18,473.596,88.853z"/>
			<path opacity="0.8" fill="#104D5D" d="M524.625,53.43c12.123,17.464,7.777,41.536-9.688,53.659
				c-17.464,12.124-41.536,7.778-53.658-9.687c-12.124-17.465-7.778-41.536,9.686-53.66C488.43,31.62,512.502,35.965,524.625,53.43z
				 M467.145,93.331c9.878,14.23,29.491,17.771,43.722,7.893c14.231-9.878,17.771-29.492,7.894-43.723s-29.492-17.771-43.723-7.893
				C460.807,59.487,457.266,79.101,467.145,93.331z"/>
			<path opacity="0.8" fill="#1B7275" d="M525.46,53.401c12.027,17.756,7.549,42.014-10.115,54.275
				c-17.663,12.262-41.956,7.976-54.385-9.501c0,0-1.884-1.3-4.304,0.379c-2.419,1.68-1.563,3.692-1.563,3.692
				c14.675,20.711,43.425,25.802,64.322,11.295c20.898-14.506,26.183-43.222,11.909-64.212c0,0-1.425-1.619-3.917,0.112
				C524.688,51.002,525.46,53.401,525.46,53.401z"/>
			<path opacity="0.8" fill="#104D5D" d="M537.529,44.473c17.062,24.58,10.946,58.458-13.635,75.521
				c-24.579,17.063-58.457,10.946-75.521-13.633c-17.062-24.58-10.946-58.458,13.634-75.521S520.467,19.893,537.529,44.473z
				 M454.24,102.289c14.817,21.345,44.238,26.657,65.584,11.839c21.345-14.817,26.657-44.238,11.839-65.583
				c-14.817-21.346-44.238-26.657-65.584-11.84C444.734,51.522,439.423,80.943,454.24,102.289z"/>
			<path opacity="0.8" fill="#104D5D" d="M543.98,39.994c19.532,28.137,12.531,66.919-15.606,86.451
				c-28.138,19.532-66.92,12.531-86.451-15.606c-19.532-28.138-12.531-66.919,15.606-86.452
				C485.667,4.855,524.449,11.856,543.98,39.994z M447.788,106.767c17.287,24.903,51.611,31.1,76.515,13.813
				c24.903-17.287,31.1-51.612,13.813-76.514c-17.287-24.904-51.611-31.1-76.515-13.813
				C436.697,47.54,430.501,81.864,447.788,106.767z"/>
			<path opacity="0.8" fill="#104D5D" d="M483.174,137.452c-16.354-2.582-31.673-11.563-41.838-26.206
				c-19.756-28.461-12.675-67.688,15.786-87.445c9.564-6.639,20.346-10.244,31.194-11.028c0,0,3.016-2.102,0.858-4.95
				c-2.157-2.848-8.145-1.347-8.145-1.347c-9.764,1.672-19.319,5.448-27.979,11.459c-31.695,22.001-39.582,65.687-17.58,97.382
				c11.287,16.26,28.281,26.251,46.436,29.158c0,0,2.795-0.207,3.287-2.937C485.687,138.809,483.174,137.452,483.174,137.452z"/>
		</g>
		<g opacity="0.9">
			<path opacity="0.8" fill="#104D5D" d="M679.929,11.14c-38.658,10.096-78.325-13.137-88.424-51.797
				c-10.098-38.659,13.14-78.326,51.797-88.423c38.659-10.095,78.327,13.138,88.424,51.796
				C741.825-38.626,718.588,1.044,679.929,11.14z M649.024-107.171c-26.576,6.941-42.553,34.214-35.608,60.792
				c6.941,26.579,34.212,42.554,60.79,35.61c26.578-6.944,42.554-34.214,35.612-60.792
				C702.876-98.138,675.604-114.114,649.024-107.171z"/>
			<path opacity="0.8" fill="#104D5D" d="M674.096-12.689c-25.37,6.628-51.401-8.623-58.029-33.991
				c-6.626-25.371,8.624-51.402,33.992-58.031c25.37-6.624,51.402,8.624,58.028,33.994
				C714.714-45.349,699.464-19.314,674.096-12.689z M655.782-82.801c-13.29,3.475-21.276,17.107-17.805,30.396
				c3.471,13.289,17.106,21.279,30.394,17.807c13.291-3.472,21.278-17.106,17.807-30.396S669.07-86.27,655.782-82.801z"/>
			<path opacity="0.8" fill="#104D5D" d="M686.225,35.242c-51.947,13.568-105.249-17.655-118.82-69.604
				c-13.57-51.946,17.655-105.248,69.603-118.819c51.951-13.57,105.25,17.653,118.82,69.604
				C769.396-31.632,738.176,21.671,686.225,35.242z M642.729-131.272c-39.865,10.413-63.829,51.321-53.415,91.188
				c10.414,39.867,51.322,63.829,91.186,53.416c39.869-10.416,63.831-51.321,53.417-91.188
				C723.503-117.723,682.598-141.687,642.729-131.272z"/>
			<path opacity="0.8" fill="#104D5D" d="M692.52,59.343c-65.236,17.04-132.174-22.171-149.215-87.409
				c-17.042-65.235,22.17-132.176,87.405-149.213c65.239-17.042,132.176,22.169,149.218,87.404
				C796.969-24.637,757.757,42.303,692.52,59.343z M636.435-155.37c-53.157,13.884-85.104,68.425-71.222,121.581
				c13.885,53.16,68.428,85.107,121.584,71.223c53.156-13.884,85.105-68.428,71.222-121.584
				C744.133-137.307,689.591-169.257,636.435-155.37z"/>
			<path opacity="0.8" fill="#1B7275" d="M691.695,61.861c-66,16.437-133.348-23.374-150.581-89.355
				c-17.236-65.979,22.038-133.642,87.646-151.578c0,0,5.929-4.19,3.567-13.23c-2.361-9.036-9.29-8.682-9.29-8.682
				C545.35-179.889,498.813-99.833,519.204-21.772c20.389,78.063,100.132,125.138,178.215,105.543c0,0,6.375-2.477,3.942-11.786
				C699.681,62.182,691.695,61.861,691.695,61.861z"/>
			<path opacity="0.8" fill="#104D5D" d="M705.109,107.545c-91.813,23.981-186.024-31.203-210.005-123.021
				c-23.984-91.814,31.202-186.021,123.018-210.008c91.813-23.98,186.023,31.204,210.007,123.02
				C852.111-10.648,796.924,83.562,705.109,107.545z M623.843-203.572C544.11-182.745,496.185-100.932,517.012-21.196
				c20.829,79.731,102.641,127.66,182.375,106.829C779.123,64.806,827.047-17.008,806.22-96.743
				C785.392-176.475,703.578-224.4,623.843-203.572z"/>
			<path opacity="0.8" fill="#104D5D" d="M711.405,131.643C606.302,159.098,498.457,95.926,471.002-9.18
				c-27.453-105.104,35.72-212.95,140.823-240.402c105.107-27.455,212.949,35.718,240.404,140.823
				C879.683-3.654,816.511,104.191,711.405,131.643z M617.549-227.673c-93.022,24.3-148.936,119.748-124.638,212.771
				C517.21,78.122,612.66,134.034,705.682,109.734c93.025-24.299,148.936-119.748,124.638-212.772
				C806.02-196.062,710.573-251.972,617.549-227.673z"/>
			<path opacity="0.8" fill="#104D5D" d="M487.556-155.79c25.536-45.883,69.001-81.695,123.697-95.984
				c106.313-27.769,215.396,36.128,243.167,142.442c9.332,35.727,8.3,71.765-1.205,104.926c0,0,2.969,11.274,13.803,7.958
				c10.835-3.316,12.899-22.782,12.899-22.782c5.677-30.9,4.862-63.475-3.588-95.825
				C845.404-233.449,723.924-304.611,605.53-273.684c-60.737,15.866-109.035,55.567-137.506,106.455c0,0-2.434,8.548,5.157,12.993
				C480.772-149.788,487.556-155.79,487.556-155.79z"/>
		</g>
		<g opacity="0.9">
			<path opacity="0.8" fill="#104D5D" d="M714.065,592.876c-22.677,11.242-50.275,1.94-61.517-20.738
				c-11.24-22.68-1.938-50.275,20.74-61.517c22.678-11.242,50.275-1.94,61.517,20.739
				C746.049,554.037,736.744,581.635,714.065,592.876z M679.66,523.473c-15.59,7.729-21.988,26.702-14.259,42.294
				c7.729,15.591,26.702,21.988,42.293,14.258c15.592-7.729,21.988-26.701,14.261-42.293
				C714.226,522.14,695.253,515.743,679.66,523.473z"/>
			<path opacity="0.8" fill="#104D5D" d="M707.379,578.847c-14.884,7.378-32.994,1.272-40.372-13.609
				c-7.376-14.882-1.27-32.993,13.611-40.372c14.884-7.376,32.993-1.271,40.37,13.611
				C728.366,553.358,722.261,571.471,707.379,578.847z M686.991,537.719c-7.798,3.866-10.995,13.351-7.13,21.146
				c3.865,7.795,13.351,10.995,21.146,7.13s10.994-13.351,7.128-21.146C704.272,537.053,694.784,533.855,686.991,537.719z"/>
			<path opacity="0.8" fill="#104D5D" d="M721.076,607.016c-30.475,15.105-67.558,2.604-82.665-27.87
				c-15.107-30.473-2.604-67.555,27.87-82.663c30.477-15.108,67.555-2.605,82.662,27.869
				C764.052,554.824,751.551,591.908,721.076,607.016z M672.651,509.334c-23.387,11.593-32.981,40.054-21.387,63.441
				c11.594,23.386,40.053,32.98,63.438,21.388c23.388-11.595,32.981-40.054,21.388-63.44
				C724.498,507.336,696.039,497.74,672.651,509.334z"/>
			<path opacity="0.8" fill="#104D5D" d="M728.084,621.153c-38.27,18.971-84.838,3.271-103.812-34.999
				c-18.972-38.27-3.27-84.84,35-103.809c38.27-18.973,84.837-3.272,103.811,34.996
				C782.056,555.612,766.354,602.183,728.084,621.153z M665.643,495.198c-31.183,15.457-43.974,53.402-28.518,84.584
				c15.459,31.186,53.403,43.977,84.586,28.519c31.183-15.457,43.977-53.403,28.519-84.586
				C734.771,492.531,696.826,479.738,665.643,495.198z"/>
			<path opacity="0.8" fill="#1B7275" d="M727.897,622.822c-38.821,18.694-85.722,2.676-104.909-36.031
				c-19.188-38.705-3.543-85.732,34.845-105.307c0,0,3.136-3.362,0.507-8.665c-2.629-5.301-6.88-4.189-6.88-4.189
				c-45.471,23.091-64.026,78.74-41.324,124.532c22.7,45.794,78.225,64.723,124.132,42.512c0,0,3.635-2.357,0.927-7.818
				C732.891,621.992,727.897,622.822,727.897,622.822z"/>
			<path opacity="0.8" fill="#104D5D" d="M742.101,649.431c-53.861,26.698-119.404,4.603-146.103-49.261
				c-26.701-53.86-4.604-119.399,49.258-146.103c53.859-26.699,119.4-4.604,146.101,49.258
				C818.058,557.188,795.963,622.729,742.101,649.431z M651.625,466.921c-46.772,23.188-65.963,80.106-42.774,126.88
				c23.187,46.772,80.104,65.965,126.878,42.775c46.775-23.188,65.966-80.105,42.775-126.88
				C755.319,462.924,698.399,443.734,651.625,466.921z"/>
			<path opacity="0.8" fill="#104D5D" d="M749.109,663.566c-61.655,30.566-136.685,5.271-167.251-56.386
				c-30.563-61.657-5.271-136.687,56.387-167.25c61.657-30.566,136.685-5.271,167.252,56.387
				C836.061,557.975,810.768,633.004,749.109,663.566z M644.616,452.783c-54.567,27.052-76.957,93.456-49.905,148.026
				c27.053,54.57,93.457,76.957,148.025,49.904c54.571-27.052,76.957-93.456,49.907-148.026
				C765.591,448.118,699.188,425.73,644.616,452.783z"/>
			<path opacity="0.8" fill="#104D5D" d="M573.245,514.112c9.929-31.749,32.277-59.56,64.362-75.469
				c62.367-30.914,138.257-5.33,169.174,57.036c10.389,20.959,14.391,43.444,12.765,65.237c0,0,3.294,6.61,9.587,3.159
				c6.295-3.452,5.066-15.793,5.066-15.793c-0.458-19.897-5.158-39.998-14.565-58.975c-34.431-69.453-118.945-97.947-188.397-63.516
				c-35.629,17.662-60.474,48.508-71.579,83.738c0,0-0.408,5.616,4.872,7.395C569.812,518.707,573.245,514.112,573.245,514.112z"/>
		</g>
		<g opacity="0.8">
			<path opacity="0.8" fill="#104D5D" d="M258.264,557.731c-13.482-6.25-19.367-22.305-13.116-35.787
				c6.252-13.481,22.306-19.365,35.788-13.114c13.483,6.251,19.367,22.306,13.115,35.788
				C287.802,558.1,271.746,563.984,258.264,557.731z M277.395,516.471c-9.269-4.297-20.307-0.253-24.605,9.017
				c-4.297,9.269-0.253,20.308,9.017,24.604s20.307,0.253,24.605-9.016C290.709,531.807,286.664,520.769,277.395,516.471z"/>
			<path opacity="0.8" fill="#104D5D" d="M262.229,549.514c-8.849-4.102-12.709-14.639-8.607-23.485
				c4.103-8.848,14.64-12.709,23.487-8.607c8.847,4.104,12.708,14.64,8.606,23.486C281.613,549.755,271.077,553.616,262.229,549.514
				z M273.566,525.063c-4.636-2.149-10.154-0.127-12.303,4.507c-2.147,4.636-0.126,10.154,4.509,12.303
				c4.635,2.149,10.153,0.127,12.301-4.508C280.223,532.73,278.199,527.211,273.566,525.063z"/>
			<path opacity="0.8" fill="#104D5D" d="M254.367,566.14c-18.117-8.401-26.023-29.975-17.623-48.093
				c8.399-18.116,29.973-26.021,48.091-17.622c18.119,8.4,26.022,29.973,17.622,48.09
				C294.058,566.633,272.485,574.539,254.367,566.14z M281.292,508.065c-13.904-6.446-30.461-0.379-36.907,13.525
				c-6.445,13.903-0.379,30.46,13.524,36.906c13.905,6.446,30.46,0.38,36.907-13.524
				C301.262,531.069,295.196,514.512,281.292,508.065z"/>
			<path opacity="0.8" fill="#104D5D" d="M250.469,574.543c-22.75-10.55-32.679-37.64-22.13-60.394
				c10.548-22.751,37.641-32.678,60.393-22.13c22.752,10.549,32.679,37.64,22.132,60.393
				C300.314,575.165,273.221,585.093,250.469,574.543z M285.188,499.66c-18.537-8.595-40.612-0.505-49.208,18.031
				c-8.596,18.541-0.507,40.615,18.032,49.21c18.538,8.596,40.613,0.508,49.208-18.032
				C311.817,530.331,303.728,508.256,285.188,499.66z"/>
			<path opacity="0.8" fill="#1B7275" d="M249.638,575.071c-22.828-10.902-32.732-38.265-22.063-61.275
				c10.668-23.011,37.951-33.132,61.021-22.751c0,0,2.692,0.199,4.154-2.953c1.461-3.151-0.61-4.689-0.61-4.689
				c-27.285-12.332-59.583-0.374-72.206,26.851c-12.623,27.225-0.881,59.604,26.161,72.458c0,0,2.415,0.799,3.92-2.449
				C251.853,577.053,249.638,575.071,249.638,575.071z"/>
			<path opacity="0.8" fill="#104D5D" d="M242.674,591.354c-32.02-14.849-45.993-52.978-31.146-84.998
				c14.846-32.021,52.975-45.993,84.998-31.147c32.02,14.846,45.992,52.976,31.146,84.996
				C312.825,592.228,274.696,606.201,242.674,591.354z M292.983,482.85c-27.808-12.893-60.921-0.759-73.813,27.049
				c-12.894,27.808-0.76,60.922,27.048,73.813c27.809,12.894,60.921,0.76,73.813-27.05
				C332.924,528.856,320.791,495.743,292.983,482.85z"/>
			<path opacity="0.8" fill="#104D5D" d="M238.778,599.759c-36.655-16.995-52.65-60.644-35.656-97.3
				c16.997-36.655,60.645-52.651,97.3-35.655c36.656,16.995,52.65,60.644,35.656,97.301
				C319.082,600.76,275.434,616.756,238.778,599.759z M296.879,474.444c-32.441-15.04-71.073-0.886-86.116,31.558
				c-15.042,32.442-0.885,71.073,31.558,86.114c32.442,15.043,71.073,0.886,86.117-31.556
				C343.479,528.118,329.323,489.486,296.879,474.444z"/>
			<path opacity="0.8" fill="#104D5D" d="M242.568,464.309c18.186-7.123,39.133-7.112,58.209,1.73
				c37.077,17.192,53.255,61.341,36.066,98.418c-5.778,12.46-14.602,22.558-25.178,29.822c0,0-1.815,3.938,2.077,5.551
				c3.895,1.612,9.093-3.484,9.093-3.484c8.941-7.523,16.417-17.063,21.647-28.346c19.145-41.291,1.128-90.458-40.164-109.603
				c-21.182-9.819-44.436-9.857-64.647-1.994c0,0-2.722,1.879-1.595,4.949C239.202,464.426,242.568,464.309,242.568,464.309z"/>
		</g>
		<g opacity="0.9">
			<path opacity="0.8" fill="#104D5D" d="M74.843,473.668c24.542-14.155,56.026-5.708,70.18,18.836
				c14.151,24.545,5.702,56.027-18.839,70.182c-24.543,14.154-56.028,5.705-70.182-18.84
				C41.847,519.307,50.298,487.819,74.843,473.668z M118.161,548.777c16.871-9.731,22.685-31.376,12.953-48.251
				c-9.731-16.872-31.377-22.686-48.25-12.952c-16.875,9.733-22.684,31.376-12.956,48.251
				C79.64,552.698,101.287,558.51,118.161,548.777z"/>
			<path opacity="0.8" fill="#104D5D" d="M83.3,488.869c16.106-9.291,36.769-3.744,46.057,12.361
				c9.289,16.106,3.74,36.771-12.363,46.059c-16.107,9.286-36.769,3.741-46.057-12.365S67.194,498.156,83.3,488.869z
				 M108.97,533.379c8.438-4.868,11.343-15.688,6.478-24.125c-4.868-8.436-15.689-11.343-24.126-6.477
				c-8.437,4.865-11.341,15.688-6.474,24.124C89.711,535.338,100.537,538.242,108.97,533.379z"/>
			<path opacity="0.8" fill="#104D5D" d="M66.016,458.363c32.981-19.018,75.288-7.662,94.308,25.318
				c19.021,32.978,7.663,75.282-25.317,94.306c-32.983,19.022-75.283,7.663-94.304-25.317
				C21.68,519.691,33.036,477.386,66.016,458.363z M126.985,564.078c25.311-14.596,34.025-47.066,19.427-72.376
				c-14.597-25.308-47.063-34.023-72.373-19.429c-25.312,14.598-34.027,47.064-19.428,72.375
				C69.208,569.958,101.675,578.676,126.985,564.078z"/>
			<path opacity="0.8" fill="#104D5D" d="M57.193,443.064c41.417-23.884,94.543-9.624,118.432,31.794
				c23.886,41.415,9.621,94.544-31.794,118.43c-41.417,23.885-94.542,9.625-118.431-31.792
				C1.513,520.078,15.776,466.948,57.193,443.064z M135.811,579.376c33.746-19.461,45.365-62.75,25.905-96.495
				c-19.464-33.751-62.752-45.37-96.499-25.907s-45.37,62.751-25.905,96.499C58.773,587.221,102.062,598.842,135.811,579.376z"/>
			<path opacity="0.8" fill="#1B7275" d="M57.284,441.188c42.052-23.617,95.574-9.021,119.731,32.868
				c24.159,41.888,9.99,95.522-31.517,120.091c0,0-3.265,3.977,0.045,9.716c3.309,5.737,7.981,4.196,7.981,4.196
				c49.17-28.995,65.982-92.468,37.4-142.025c-28.582-49.559-91.94-66.797-141.662-38.754c0,0-3.894,2.888-0.484,8.799
				C51.764,442.465,57.284,441.188,57.284,441.188z"/>
			<path opacity="0.8" fill="#104D5D" d="M39.545,412.461c58.291-33.613,133.064-13.544,166.68,44.749
				c33.618,58.289,13.545,133.06-44.745,166.68c-58.289,33.616-133.06,13.544-166.678-44.745
				C-38.816,520.852-18.747,446.08,39.545,412.461z M153.459,609.98c50.62-29.195,68.051-94.131,38.857-144.75
				c-29.195-50.619-94.13-68.055-144.747-38.857c-50.623,29.195-68.055,94.128-38.858,144.749
				C37.902,621.739,102.837,639.172,153.459,609.98z"/>
			<path opacity="0.8" fill="#104D5D" d="M30.721,397.162c66.725-38.482,152.321-15.505,190.806,51.221
				c38.48,66.729,15.505,152.324-51.222,190.807c-66.726,38.484-152.321,15.506-190.808-51.222
				C-58.984,521.239-36.007,435.643,30.721,397.162z M162.283,625.279c59.054-34.059,79.394-109.815,45.334-168.874
				c-34.061-59.057-109.816-79.394-168.873-45.332c-59.059,34.059-79.393,109.814-45.337,168.874
				C27.469,639.003,103.225,659.341,162.283,625.279z"/>
			<path opacity="0.8" fill="#104D5D" d="M237.697,551.745c-8.857,36.167-31.865,68.807-66.588,88.835
				c-67.497,38.924-154.073,15.684-193-51.81c-13.08-22.684-19.133-47.52-18.849-71.979c0,0-4.146-7.152-10.932-2.856
				c-6.789,4.302-4.549,18-4.549,18c1.911,22.195,8.577,44.32,20.422,64.856c43.351,75.165,139.766,101.05,214.931,57.698
				c38.556-22.238,64.14-58.446,74.069-98.581c0,0,0.059-6.306-5.963-7.92C241.209,546.37,237.697,551.745,237.697,551.745z"/>
		</g>
	</g>
</g>
</svg>
