<?xml version="1.0" encoding="UTF-8"?>
<!DOCTYPE svg  PUBLIC '-//W3C//DTD SVG 1.1//EN'  'http://www.w3.org/Graphics/SVG/1.1/DTD/svg11.dtd'>
<svg width="280.12mm" height="199.79mm" clip-rule="evenodd" fill-rule="evenodd" image-rendering="optimizeQuality" shape-rendering="geometricPrecision" text-rendering="geometricPrecision" version="1.1" viewBox="0 0 28012 19979" xml:space="preserve" xmlns="http://www.w3.org/2000/svg">
 <defs>
  <style type="text/css">
    .fil0 {fill:url(#b)}
    .fil1 {fill:url(#a);fill-rule:nonzero}
  </style>
  <radialGradient id="b" cx="14286" cy="10789" r="13726" gradientTransform="matrix(.0038551 .78261 -1.0972 .005405 26069 -450)" gradientUnits="userSpaceOnUse">
   <stop stop-color="#BDA146" offset="0"/>
   <stop stop-color="#664705" offset="1"/>
  </radialGradient>
  <radialGradient id="a" cx="14566" cy="10189" r="14006" gradientTransform="matrix(.007551 .85307 -1.1213 .010793 25881 -2347)" gradientUnits="userSpaceOnUse">
   <stop stop-color="#E6C968" offset="0"/>
   <stop stop-color="#A78936" offset=".4"/>
   <stop stop-color="#694905" offset="1"/>
  </radialGradient>
 </defs>
  <rect class="fil0" width="28012" height="19979"/>
  <path class="fil1" d="m0 217l308-178 464 268 464-268 465 268 464-268 464 268 465-268 464 268 464-268 464 268 465-268 464 268 464-268 464 268 465-268 464 268 464-268 465 268 464-268 464 268 464-268 465 268 464-268 464 268 464-268 465 268 464-268 464 268 465-268 464 268 464-268 464 268 465-268 464 268 464-268 465 268 464-268 464 268 464-268 465 268 464-268 464 268 464-268 465 268 464-268 464 268 465-268 464 268 464-268 464 268 465-268 464 268 464-268 464 268 465-268 464 268 464-268 465 268 464-268 464 268 312-180v222l-214 124v423l214 124v225l-308-178-366 211v424l366 211 308-177v232l-214 123v424l214 123v225l-308-177-366 211v424l366 211 308-178v232l-214 124v423l214 124v225l-308-178-366 212v423l366 212 308-178v232l-214 123v424l214 124v224l-308-177-366 211v424l366 211 308-177v231l-214 124v424l214 123v225l-308-178-366 212v423l366 212 308-178v232l-214 124v423l214 124v225l-308-178-366 211v424l366 211 308-177v232l-214 123v424l214 123v225l-308-177-366 211v424l366 211 308-178v232l-214 124v423l214 124v225l-308-178-366 212v423l366 212 308-178v232l-214 123v424l214 124v224l-308-177-366 211v424l366 211 308-177v231l-214 124v424l214 123v225l-308-178-366 212v423l366 212 308-178v232l-214 124v423l214 124v225l-308-178-366 211v424l366 211 308-177v232l-214 123v424l214 123v225l-308-177-366 211v424l366 211 308-178v222l-308 178-464-268-464 268-465-268-464 268-464-268-464 268-465-268-464 268-464-268-465 268-464-268-464 268-464-268-465 268-464-268-464 268-465-268-464 268-464-268-464 268-465-268-464 268-464-268-464 268-465-268-464 268-464-268-465 268-464-268-464 268-464-268-465 268-464-268-464 268-464-268-465 268-464-268-464 268-465-268-464 268-464-268-464 268-465-268-464 268-464-268-464 268-465-268-464 268-464-268-465 268-464-268-464 268-464-268-465 268-464-268-464 268-465-268-464 268-464-268-312 180v-222l214-123v-424l-214-124v-224l308 177 366-211v-424l-366-211-308 177v-232l214-123v-424l-214-123v-225l308 178 366-212v-423l-366-212-308 178v-232l214-124v-423l-214-124v-225l308 178 366-211v-424l-366-211-308 177v-232l214-123v-424l-214-123v-225l308 177 366-211v-424l-366-211-308 178v-232l214-124v-423l-214-124v-225l308 178 366-212v-423l-366-212-308 178v-232l214-123v-424l-214-124v-224l308 177 366-211v-424l-366-211-308 177v-231l214-124v-424l-214-123v-225l308 178 366-212v-423l-366-212-308 178v-232l214-124v-423l-214-124v-225l308 178 366-211v-424l-366-211-308 177v-232l214-123v-424l-214-123v-225l308 177 366-211v-424l-366-211-308 178v-232l214-124v-423l-214-124v-225l308 178 366-212v-423l-366-212-308 178v-232l214-123v-424l-214-123v-225l308 177 366-211v-424l-366-211-308 177v-231l214-124v-424l-214-123v-225l308 178 366-212v-423l-366-212-308 178v-222zm26776 18655l-367 211v424l367 211 366-211v-424l-366-211zm-929 0l-366 211v424l366 211 366-211v-424l-366-211zm-928 0l-367 211v424l367 211 366-211v-424l-366-211zm-929 0l-366 211v424l366 211 366-211v-424l-366-211zm-929 0l-366 211v424l366 211 367-211v-424l-367-211zm-928 0l-366 211v424l366 211 366-211v-424l-366-211zm-929 0l-366 211v424l366 211 366-211v-424l-366-211zm-928 0l-366 211v424l366 211 366-211v-424l-366-211zm-929 0l-366 211v424l366 211 366-211v-424l-366-211zm-928 0l-366 211v424l366 211 366-211v-424l-366-211zm-929 0l-366 211v424l366 211 366-211v-424l-366-211zm-928 0l-367 211v424l367 211 366-211v-424l-366-211zm-929 0l-366 211v424l366 211 366-211v-424l-366-211zm-929 0l-366 211v424l366 211 367-211v-424l-367-211zm-928 0l-366 211v424l366 211 366-211v-424l-366-211zm-929 0l-366 211v424l366 211 367-211v-424l-367-211zm-928 0l-366 211v424l366 211 366-211v-424l-366-211zm-929 0l-366 211v424l366 211 366-211v-424l-366-211zm-928 0l-366 211v424l366 211 366-211v-424l-366-211zm-929 0l-366 211v424l366 211 366-211v-424l-366-211zm-928 0l-367 211v424l367 211 366-211v-424l-366-211zm-929 0l-366 211v424l366 211 366-211v-424l-366-211zm-928 0l-367 211v424l367 211 366-211v-424l-366-211zm-929 0l-366 211v424l366 211 366-211v-424l-366-211zm-929 0l-366 211v424l366 211 367-211v-424l-367-211zm-928 0l-366 211v424l366 211 366-211v-424l-366-211zm-929 0l-366 211v424l366 211 366-211v-424l-366-211zm-928 0l-366 211v424l366 211 366-211v-424l-366-211zm-929 0l-366 211v424l366 211 366-211v-424l-366-211zm26460-806l-366 211v424l366 211 366-211v-424l-366-211zm-929 0l-366 211v424l366 211 366-211v-424l-366-211zm-928 0l-366 211v424l366 211 366-211v-424l-366-211zm-929 0l-366 211v424l366 211 366-211v-424l-366-211zm-928 0l-367 211v424l367 211 366-211v-424l-366-211zm-929 0l-366 211v424l366 211 366-211v-424l-366-211zm-928 0l-367 211v424l367 211 366-211v-424l-366-211zm-929 0l-366 211v424l366 211 366-211v-424l-366-211zm-929 0l-366 211v424l366 211 367-211v-424l-367-211zm-928 0l-366 211v424l366 211 366-211v-424l-366-211zm-929 0l-366 211v424l366 211 366-211v-424l-366-211zm-928 0l-366 211v424l366 211 366-211v-424l-366-211zm-929 0l-366 211v424l366 211 366-211v-424l-366-211zm-928 0l-366 211v424l366 211 366-211v-424l-366-211zm-929 0l-366 211v424l366 211 366-211v-424l-366-211zm-928 0l-367 211v424l367 211 366-211v-424l-366-211zm-929 0l-366 211v424l366 211 366-211v-424l-366-211zm-929 0l-366 211v424l366 211 367-211v-424l-367-211zm-928 0l-366 211v424l366 211 366-211v-424l-366-211zm-929 0l-366 211v424l366 211 367-211v-424l-367-211zm-928 0l-366 211v424l366 211 366-211v-424l-366-211zm-929 0l-366 211v424l366 211 366-211v-424l-366-211zm-928 0l-366 211v424l366 211 366-211v-424l-366-211zm-929 0l-366 211v424l366 211 366-211v-424l-366-211zm-928 0l-367 211v424l367 211 366-211v-424l-366-211zm-929 0l-366 211v424l366 211 366-211v-424l-366-211zm-928 0l-367 211v424l367 211 366-211v-424l-366-211zm-929 0l-366 211v424l366 211 366-211v-424l-366-211zm-929 0l-366 211v424l366 211 367-211v-424l-367-211zm25540-813l-367 211v424l367 211 366-211v-424l-366-211zm-929 0l-366 211v424l366 211 366-211v-424l-366-211zm-928 0l-367 211v424l367 211 366-211v-424l-366-211zm-929 0l-366 211v424l366 211 366-211v-424l-366-211zm-929 0l-366 211v424l366 211 367-211v-424l-367-211zm-928 0l-366 211v424l366 211 366-211v-424l-366-211zm-929 0l-366 211v424l366 211 366-211v-424l-366-211zm-928 0l-366 211v424l366 211 366-211v-424l-366-211zm-929 0l-366 211v424l366 211 366-211v-424l-366-211zm-928 0l-366 211v424l366 211 366-211v-424l-366-211zm-929 0l-366 211v424l366 211 366-211v-424l-366-211zm-928 0l-367 211v424l367 211 366-211v-424l-366-211zm-929 0l-366 211v424l366 211 366-211v-424l-366-211zm-929 0l-366 211v424l366 211 367-211v-424l-367-211zm-928 0l-366 211v424l366 211 366-211v-424l-366-211zm-929 0l-366 211v424l366 211 367-211v-424l-367-211zm-928 0l-366 211v424l366 211 366-211v-424l-366-211zm-929 0l-366 211v424l366 211 366-211v-424l-366-211zm-928 0l-366 211v424l366 211 366-211v-424l-366-211zm-929 0l-366 211v424l366 211 366-211v-424l-366-211zm-928 0l-367 211v424l367 211 366-211v-424l-366-211zm-929 0l-366 211v424l366 211 366-211v-424l-366-211zm-928 0l-367 211v424l367 211 366-211v-424l-366-211zm-929 0l-366 211v424l366 211 366-211v-424l-366-211zm-929 0l-366 211v424l366 211 367-211v-424l-367-211zm-928 0l-366 211v424l366 211 366-211v-424l-366-211zm-929 0l-366 211v424l366 211 366-211v-424l-366-211zm-928 0l-366 211v424l366 211 366-211v-424l-366-211zm-929 0l-366 211v424l366 211 366-211v-424l-366-211zm26460-806l-366 212v423l366 212 366-212v-423l-366-212zm-929 0l-366 212v423l366 212 366-212v-423l-366-212zm-928 0l-366 212v423l366 212 366-212v-423l-366-212zm-929 0l-366 212v423l366 212 366-212v-423l-366-212zm-928 0l-367 212v423l367 212 366-212v-423l-366-212zm-929 0l-366 212v423l366 212 366-212v-423l-366-212zm-928 0l-367 212v423l367 212 366-212v-423l-366-212zm-929 0l-366 212v423l366 212 366-212v-423l-366-212zm-929 0l-366 212v423l366 212 367-212v-423l-367-212zm-928 0l-366 212v423l366 212 366-212v-423l-366-212zm-929 0l-366 212v423l366 212 366-212v-423l-366-212zm-928 0l-366 212v423l366 212 366-212v-423l-366-212zm-929 0l-366 212v423l366 212 366-212v-423l-366-212zm-928 0l-366 212v423l366 212 366-212v-423l-366-212zm-929 0l-366 212v423l366 212 366-212v-423l-366-212zm-928 0l-367 212v423l367 212 366-212v-423l-366-212zm-929 0l-366 212v423l366 212 366-212v-423l-366-212zm-929 0l-366 212v423l366 212 367-212v-423l-367-212zm-928 0l-366 212v423l366 212 366-212v-423l-366-212zm-929 0l-366 212v423l366 212 367-212v-423l-367-212zm-928 0l-366 212v423l366 212 366-212v-423l-366-212zm-929 0l-366 212v423l366 212 366-212v-423l-366-212zm-928 0l-366 212v423l366 212 366-212v-423l-366-212zm-929 0l-366 212v423l366 212 366-212v-423l-366-212zm-928 0l-367 212v423l367 212 366-212v-423l-366-212zm-929 0l-366 212v423l366 212 366-212v-423l-366-212zm-928 0l-367 212v423l367 212 366-212v-423l-366-212zm-929 0l-366 212v423l366 212 366-212v-423l-366-212zm-929 0l-366 212v423l366 212 367-212v-423l-367-212zm25540-813l-367 212v423l367 212 366-212v-423l-366-212zm-929 0l-366 212v423l366 212 366-212v-423l-366-212zm-928 0l-367 212v423l367 212 366-212v-423l-366-212zm-929 0l-366 212v423l366 212 366-212v-423l-366-212zm-929 0l-366 212v423l366 212 367-212v-423l-367-212zm-928 0l-366 212v423l366 212 366-212v-423l-366-212zm-929 0l-366 212v423l366 212 366-212v-423l-366-212zm-928 0l-366 212v423l366 212 366-212v-423l-366-212zm-929 0l-366 212v423l366 212 366-212v-423l-366-212zm-928 0l-366 212v423l366 212 366-212v-423l-366-212zm-929 0l-366 212v423l366 212 366-212v-423l-366-212zm-928 0l-367 212v423l367 212 366-212v-423l-366-212zm-929 0l-366 212v423l366 212 366-212v-423l-366-212zm-929 0l-366 212v423l366 212 367-212v-423l-367-212zm-928 0l-366 212v423l366 212 366-212v-423l-366-212zm-929 0l-366 212v423l366 212 367-212v-423l-367-212zm-928 0l-366 212v423l366 212 366-212v-423l-366-212zm-929 0l-366 212v423l366 212 366-212v-423l-366-212zm-928 0l-366 212v423l366 212 366-212v-423l-366-212zm-929 0l-366 212v423l366 212 366-212v-423l-366-212zm-928 0l-367 212v423l367 212 366-212v-423l-366-212zm-929 0l-366 212v423l366 212 366-212v-423l-366-212zm-928 0l-367 212v423l367 212 366-212v-423l-366-212zm-929 0l-366 212v423l366 212 366-212v-423l-366-212zm-929 0l-366 212v423l366 212 367-212v-423l-367-212zm-928 0l-366 212v423l366 212 366-212v-423l-366-212zm-929 0l-366 212v423l366 212 366-212v-423l-366-212zm-928 0l-366 212v423l366 212 366-212v-423l-366-212zm-929 0l-366 212v423l366 212 366-212v-423l-366-212zm26460-805l-366 211v424l366 211 366-211v-424l-366-211zm-929 0l-366 211v424l366 211 366-211v-424l-366-211zm-928 0l-366 211v424l366 211 366-211v-424l-366-211zm-929 0l-366 211v424l366 211 366-211v-424l-366-211zm-928 0l-367 211v424l367 211 366-211v-424l-366-211zm-929 0l-366 211v424l366 211 366-211v-424l-366-211zm-928 0l-367 211v424l367 211 366-211v-424l-366-211zm-929 0l-366 211v424l366 211 366-211v-424l-366-211zm-929 0l-366 211v424l366 211 367-211v-424l-367-211zm-928 0l-366 211v424l366 211 366-211v-424l-366-211zm-929 0l-366 211v424l366 211 366-211v-424l-366-211zm-928 0l-366 211v424l366 211 366-211v-424l-366-211zm-929 0l-366 211v424l366 211 366-211v-424l-366-211zm-928 0l-366 211v424l366 211 366-211v-424l-366-211zm-929 0l-366 211v424l366 211 366-211v-424l-366-211zm-928 0l-367 211v424l367 211 366-211v-424l-366-211zm-929 0l-366 211v424l366 211 366-211v-424l-366-211zm-929 0l-366 211v424l366 211 367-211v-424l-367-211zm-928 0l-366 211v424l366 211 366-211v-424l-366-211zm-929 0l-366 211v424l366 211 367-211v-424l-367-211zm-928 0l-366 211v424l366 211 366-211v-424l-366-211zm-929 0l-366 211v424l366 211 366-211v-424l-366-211zm-928 0l-366 211v424l366 211 366-211v-424l-366-211zm-929 0l-366 211v424l366 211 366-211v-424l-366-211zm-928 0l-367 211v424l367 211 366-211v-424l-366-211zm-929 0l-366 211v424l366 211 366-211v-424l-366-211zm-928 0l-367 211v424l367 211 366-211v-424l-366-211zm-929 0l-366 211v424l366 211 366-211v-424l-366-211zm-929 0l-366 211v424l366 211 367-211v-424l-367-211zm25540-813l-367 211v424l367 211 366-211v-424l-366-211zm-929 0l-366 211v424l366 211 366-211v-424l-366-211zm-928 0l-367 211v424l367 211 366-211v-424l-366-211zm-929 0l-366 211v424l366 211 366-211v-424l-366-211zm-929 0l-366 211v424l366 211 367-211v-424l-367-211zm-928 0l-366 211v424l366 211 366-211v-424l-366-211zm-929 0l-366 211v424l366 211 366-211v-424l-366-211zm-928 0l-366 211v424l366 211 366-211v-424l-366-211zm-929 0l-366 211v424l366 211 366-211v-424l-366-211zm-928 0l-366 211v424l366 211 366-211v-424l-366-211zm-929 0l-366 211v424l366 211 366-211v-424l-366-211zm-928 0l-367 211v424l367 211 366-211v-424l-366-211zm-929 0l-366 211v424l366 211 366-211v-424l-366-211zm-929 0l-366 211v424l366 211 367-211v-424l-367-211zm-928 0l-366 211v424l366 211 366-211v-424l-366-211zm-929 0l-366 211v424l366 211 367-211v-424l-367-211zm-928 0l-366 211v424l366 211 366-211v-424l-366-211zm-929 0l-366 211v424l366 211 366-211v-424l-366-211zm-928 0l-366 211v424l366 211 366-211v-424l-366-211zm-929 0l-366 211v424l366 211 366-211v-424l-366-211zm-928 0l-367 211v424l367 211 366-211v-424l-366-211zm-929 0l-366 211v424l366 211 366-211v-424l-366-211zm-928 0l-367 211v424l367 211 366-211v-424l-366-211zm-929 0l-366 211v424l366 211 366-211v-424l-366-211zm-929 0l-366 211v424l366 211 367-211v-424l-367-211zm-928 0l-366 211v424l366 211 366-211v-424l-366-211zm-929 0l-366 211v424l366 211 366-211v-424l-366-211zm-928 0l-366 211v424l366 211 366-211v-424l-366-211zm-929 0l-366 211v424l366 211 366-211v-424l-366-211zm26460-806l-366 211v424l366 211 366-211v-424l-366-211zm-929 0l-366 211v424l366 211 366-211v-424l-366-211zm-928 0l-366 211v424l366 211 366-211v-424l-366-211zm-929 0l-366 211v424l366 211 366-211v-424l-366-211zm-928 0l-367 211v424l367 211 366-211v-424l-366-211zm-929 0l-366 211v424l366 211 366-211v-424l-366-211zm-928 0l-367 211v424l367 211 366-211v-424l-366-211zm-929 0l-366 211v424l366 211 366-211v-424l-366-211zm-929 0l-366 211v424l366 211 367-211v-424l-367-211zm-928 0l-366 211v424l366 211 366-211v-424l-366-211zm-929 0l-366 211v424l366 211 366-211v-424l-366-211zm-928 0l-366 211v424l366 211 366-211v-424l-366-211zm-929 0l-366 211v424l366 211 366-211v-424l-366-211zm-928 0l-366 211v424l366 211 366-211v-424l-366-211zm-929 0l-366 211v424l366 211 366-211v-424l-366-211zm-928 0l-367 211v424l367 211 366-211v-424l-366-211zm-929 0l-366 211v424l366 211 366-211v-424l-366-211zm-929 0l-366 211v424l366 211 367-211v-424l-367-211zm-928 0l-366 211v424l366 211 366-211v-424l-366-211zm-929 0l-366 211v424l366 211 367-211v-424l-367-211zm-928 0l-366 211v424l366 211 366-211v-424l-366-211zm-929 0l-366 211v424l366 211 366-211v-424l-366-211zm-928 0l-366 211v424l366 211 366-211v-424l-366-211zm-929 0l-366 211v424l366 211 366-211v-424l-366-211zm-928 0l-367 211v424l367 211 366-211v-424l-366-211zm-929 0l-366 211v424l366 211 366-211v-424l-366-211zm-928 0l-367 211v424l367 211 366-211v-424l-366-211zm-929 0l-366 211v424l366 211 366-211v-424l-366-211zm-929 0l-366 211v424l366 211 367-211v-424l-367-211zm25540-813l-367 212v423l367 212 366-212v-423l-366-212zm-929 0l-366 212v423l366 212 366-212v-423l-366-212zm-928 0l-367 212v423l367 212 366-212v-423l-366-212zm-929 0l-366 212v423l366 212 366-212v-423l-366-212zm-929 0l-366 212v423l366 212 367-212v-423l-367-212zm-928 0l-366 212v423l366 212 366-212v-423l-366-212zm-929 0l-366 212v423l366 212 366-212v-423l-366-212zm-928 0l-366 212v423l366 212 366-212v-423l-366-212zm-929 0l-366 212v423l366 212 366-212v-423l-366-212zm-928 0l-366 212v423l366 212 366-212v-423l-366-212zm-929 0l-366 212v423l366 212 366-212v-423l-366-212zm-928 0l-367 212v423l367 212 366-212v-423l-366-212zm-929 0l-366 212v423l366 212 366-212v-423l-366-212zm-929 0l-366 212v423l366 212 367-212v-423l-367-212zm-928 0l-366 212v423l366 212 366-212v-423l-366-212zm-929 0l-366 212v423l366 212 367-212v-423l-367-212zm-928 0l-366 212v423l366 212 366-212v-423l-366-212zm-929 0l-366 212v423l366 212 366-212v-423l-366-212zm-928 0l-366 212v423l366 212 366-212v-423l-366-212zm-929 0l-366 212v423l366 212 366-212v-423l-366-212zm-928 0l-367 212v423l367 212 366-212v-423l-366-212zm-929 0l-366 212v423l366 212 366-212v-423l-366-212zm-928 0l-367 212v423l367 212 366-212v-423l-366-212zm-929 0l-366 212v423l366 212 366-212v-423l-366-212zm-929 0l-366 212v423l366 212 367-212v-423l-367-212zm-928 0l-366 212v423l366 212 366-212v-423l-366-212zm-929 0l-366 212v423l366 212 366-212v-423l-366-212zm-928 0l-366 212v423l366 212 366-212v-423l-366-212zm-929 0l-366 212v423l366 212 366-212v-423l-366-212zm26460-806l-366 212v423l366 212 366-212v-423l-366-212zm-929 0l-366 212v423l366 212 366-212v-423l-366-212zm-928 0l-366 212v423l366 212 366-212v-423l-366-212zm-929 0l-366 212v423l366 212 366-212v-423l-366-212zm-928 0l-367 212v423l367 212 366-212v-423l-366-212zm-929 0l-366 212v423l366 212 366-212v-423l-366-212zm-928 0l-367 212v423l367 212 366-212v-423l-366-212zm-929 0l-366 212v423l366 212 366-212v-423l-366-212zm-929 0l-366 212v423l366 212 367-212v-423l-367-212zm-928 0l-366 212v423l366 212 366-212v-423l-366-212zm-929 0l-366 212v423l366 212 366-212v-423l-366-212zm-928 0l-366 212v423l366 212 366-212v-423l-366-212zm-929 0l-366 212v423l366 212 366-212v-423l-366-212zm-928 0l-366 212v423l366 212 366-212v-423l-366-212zm-929 0l-366 212v423l366 212 366-212v-423l-366-212zm-928 0l-367 212v423l367 212 366-212v-423l-366-212zm-929 0l-366 212v423l366 212 366-212v-423l-366-212zm-929 0l-366 212v423l366 212 367-212v-423l-367-212zm-928 0l-366 212v423l366 212 366-212v-423l-366-212zm-929 0l-366 212v423l366 212 367-212v-423l-367-212zm-928 0l-366 212v423l366 212 366-212v-423l-366-212zm-929 0l-366 212v423l366 212 366-212v-423l-366-212zm-928 0l-366 212v423l366 212 366-212v-423l-366-212zm-929 0l-366 212v423l366 212 366-212v-423l-366-212zm-928 0l-367 212v423l367 212 366-212v-423l-366-212zm-929 0l-366 212v423l366 212 366-212v-423l-366-212zm-928 0l-367 212v423l367 212 366-212v-423l-366-212zm-929 0l-366 212v423l366 212 366-212v-423l-366-212zm-929 0l-366 212v423l366 212 367-212v-423l-367-212zm25540-812l-367 211v424l367 211 366-211v-424l-366-211zm-929 0l-366 211v424l366 211 366-211v-424l-366-211zm-928 0l-367 211v424l367 211 366-211v-424l-366-211zm-929 0l-366 211v424l366 211 366-211v-424l-366-211zm-929 0l-366 211v424l366 211 367-211v-424l-367-211zm-928 0l-366 211v424l366 211 366-211v-424l-366-211zm-929 0l-366 211v424l366 211 366-211v-424l-366-211zm-928 0l-366 211v424l366 211 366-211v-424l-366-211zm-929 0l-366 211v424l366 211 366-211v-424l-366-211zm-928 0l-366 211v424l366 211 366-211v-424l-366-211zm-929 0l-366 211v424l366 211 366-211v-424l-366-211zm-928 0l-367 211v424l367 211 366-211v-424l-366-211zm-929 0l-366 211v424l366 211 366-211v-424l-366-211zm-929 0l-366 211v424l366 211 367-211v-424l-367-211zm-928 0l-366 211v424l366 211 366-211v-424l-366-211zm-929 0l-366 211v424l366 211 367-211v-424l-367-211zm-928 0l-366 211v424l366 211 366-211v-424l-366-211zm-929 0l-366 211v424l366 211 366-211v-424l-366-211zm-928 0l-366 211v424l366 211 366-211v-424l-366-211zm-929 0l-366 211v424l366 211 366-211v-424l-366-211zm-928 0l-367 211v424l367 211 366-211v-424l-366-211zm-929 0l-366 211v424l366 211 366-211v-424l-366-211zm-928 0l-367 211v424l367 211 366-211v-424l-366-211zm-929 0l-366 211v424l366 211 366-211v-424l-366-211zm-929 0l-366 211v424l366 211 367-211v-424l-367-211zm-928 0l-366 211v424l366 211 366-211v-424l-366-211zm-929 0l-366 211v424l366 211 366-211v-424l-366-211zm-928 0l-366 211v424l366 211 366-211v-424l-366-211zm-929 0l-366 211v424l366 211 366-211v-424l-366-211zm26460-806l-366 211v424l366 211 366-211v-424l-366-211zm-929 0l-366 211v424l366 211 366-211v-424l-366-211zm-928 0l-366 211v424l366 211 366-211v-424l-366-211zm-929 0l-366 211v424l366 211 366-211v-424l-366-211zm-928 0l-367 211v424l367 211 366-211v-424l-366-211zm-929 0l-366 211v424l366 211 366-211v-424l-366-211zm-928 0l-367 211v424l367 211 366-211v-424l-366-211zm-929 0l-366 211v424l366 211 366-211v-424l-366-211zm-929 0l-366 211v424l366 211 367-211v-424l-367-211zm-928 0l-366 211v424l366 211 366-211v-424l-366-211zm-929 0l-366 211v424l366 211 366-211v-424l-366-211zm-928 0l-366 211v424l366 211 366-211v-424l-366-211zm-929 0l-366 211v424l366 211 366-211v-424l-366-211zm-928 0l-366 211v424l366 211 366-211v-424l-366-211zm-929 0l-366 211v424l366 211 366-211v-424l-366-211zm-928 0l-367 211v424l367 211 366-211v-424l-366-211zm-929 0l-366 211v424l366 211 366-211v-424l-366-211zm-929 0l-366 211v424l366 211 367-211v-424l-367-211zm-928 0l-366 211v424l366 211 366-211v-424l-366-211zm-929 0l-366 211v424l366 211 367-211v-424l-367-211zm-928 0l-366 211v424l366 211 366-211v-424l-366-211zm-929 0l-366 211v424l366 211 366-211v-424l-366-211zm-928 0l-366 211v424l366 211 366-211v-424l-366-211zm-929 0l-366 211v424l366 211 366-211v-424l-366-211zm-928 0l-367 211v424l367 211 366-211v-424l-366-211zm-929 0l-366 211v424l366 211 366-211v-424l-366-211zm-928 0l-367 211v424l367 211 366-211v-424l-366-211zm-929 0l-366 211v424l366 211 366-211v-424l-366-211zm-929 0l-366 211v424l366 211 367-211v-424l-367-211zm25540-813l-367 211v424l367 211 366-211v-424l-366-211zm-929 0l-366 211v424l366 211 366-211v-424l-366-211zm-928 0l-367 211v424l367 211 366-211v-424l-366-211zm-929 0l-366 211v424l366 211 366-211v-424l-366-211zm-929 0l-366 211v424l366 211 367-211v-424l-367-211zm-928 0l-366 211v424l366 211 366-211v-424l-366-211zm-929 0l-366 211v424l366 211 366-211v-424l-366-211zm-928 0l-366 211v424l366 211 366-211v-424l-366-211zm-929 0l-366 211v424l366 211 366-211v-424l-366-211zm-928 0l-366 211v424l366 211 366-211v-424l-366-211zm-929 0l-366 211v424l366 211 366-211v-424l-366-211zm-928 0l-367 211v424l367 211 366-211v-424l-366-211zm-929 0l-366 211v424l366 211 366-211v-424l-366-211zm-929 0l-366 211v424l366 211 367-211v-424l-367-211zm-928 0l-366 211v424l366 211 366-211v-424l-366-211zm-929 0l-366 211v424l366 211 367-211v-424l-367-211zm-928 0l-366 211v424l366 211 366-211v-424l-366-211zm-929 0l-366 211v424l366 211 366-211v-424l-366-211zm-928 0l-366 211v424l366 211 366-211v-424l-366-211zm-929 0l-366 211v424l366 211 366-211v-424l-366-211zm-928 0l-367 211v424l367 211 366-211v-424l-366-211zm-929 0l-366 211v424l366 211 366-211v-424l-366-211zm-928 0l-367 211v424l367 211 366-211v-424l-366-211zm-929 0l-366 211v424l366 211 366-211v-424l-366-211zm-929 0l-366 211v424l366 211 367-211v-424l-367-211zm-928 0l-366 211v424l366 211 366-211v-424l-366-211zm-929 0l-366 211v424l366 211 366-211v-424l-366-211zm-928 0l-366 211v424l366 211 366-211v-424l-366-211zm-929 0l-366 211v424l366 211 366-211v-424l-366-211zm26460-806l-366 212v423l366 212 366-212v-423l-366-212zm-929 0l-366 212v423l366 212 366-212v-423l-366-212zm-928 0l-366 212v423l366 212 366-212v-423l-366-212zm-929 0l-366 212v423l366 212 366-212v-423l-366-212zm-928 0l-367 212v423l367 212 366-212v-423l-366-212zm-929 0l-366 212v423l366 212 366-212v-423l-366-212zm-928 0l-367 212v423l367 212 366-212v-423l-366-212zm-929 0l-366 212v423l366 212 366-212v-423l-366-212zm-929 0l-366 212v423l366 212 367-212v-423l-367-212zm-928 0l-366 212v423l366 212 366-212v-423l-366-212zm-929 0l-366 212v423l366 212 366-212v-423l-366-212zm-928 0l-366 212v423l366 212 366-212v-423l-366-212zm-929 0l-366 212v423l366 212 366-212v-423l-366-212zm-928 0l-366 212v423l366 212 366-212v-423l-366-212zm-929 0l-366 212v423l366 212 366-212v-423l-366-212zm-928 0l-367 212v423l367 212 366-212v-423l-366-212zm-929 0l-366 212v423l366 212 366-212v-423l-366-212zm-929 0l-366 212v423l366 212 367-212v-423l-367-212zm-928 0l-366 212v423l366 212 366-212v-423l-366-212zm-929 0l-366 212v423l366 212 367-212v-423l-367-212zm-928 0l-366 212v423l366 212 366-212v-423l-366-212zm-929 0l-366 212v423l366 212 366-212v-423l-366-212zm-928 0l-366 212v423l366 212 366-212v-423l-366-212zm-929 0l-366 212v423l366 212 366-212v-423l-366-212zm-928 0l-367 212v423l367 212 366-212v-423l-366-212zm-929 0l-366 212v423l366 212 366-212v-423l-366-212zm-928 0l-367 212v423l367 212 366-212v-423l-366-212zm-929 0l-366 212v423l366 212 366-212v-423l-366-212zm-929 0l-366 212v423l366 212 367-212v-423l-367-212zm25540-813l-367 212v423l367 212 366-212v-423l-366-212zm-929 0l-366 212v423l366 212 366-212v-423l-366-212zm-928 0l-367 212v423l367 212 366-212v-423l-366-212zm-929 0l-366 212v423l366 212 366-212v-423l-366-212zm-929 0l-366 212v423l366 212 367-212v-423l-367-212zm-928 0l-366 212v423l366 212 366-212v-423l-366-212zm-929 0l-366 212v423l366 212 366-212v-423l-366-212zm-928 0l-366 212v423l366 212 366-212v-423l-366-212zm-929 0l-366 212v423l366 212 366-212v-423l-366-212zm-928 0l-366 212v423l366 212 366-212v-423l-366-212zm-929 0l-366 212v423l366 212 366-212v-423l-366-212zm-928 0l-367 212v423l367 212 366-212v-423l-366-212zm-929 0l-366 212v423l366 212 366-212v-423l-366-212zm-929 0l-366 212v423l366 212 367-212v-423l-367-212zm-928 0l-366 212v423l366 212 366-212v-423l-366-212zm-929 0l-366 212v423l366 212 367-212v-423l-367-212zm-928 0l-366 212v423l366 212 366-212v-423l-366-212zm-929 0l-366 212v423l366 212 366-212v-423l-366-212zm-928 0l-366 212v423l366 212 366-212v-423l-366-212zm-929 0l-366 212v423l366 212 366-212v-423l-366-212zm-928 0l-367 212v423l367 212 366-212v-423l-366-212zm-929 0l-366 212v423l366 212 366-212v-423l-366-212zm-928 0l-367 212v423l367 212 366-212v-423l-366-212zm-929 0l-366 212v423l366 212 366-212v-423l-366-212zm-929 0l-366 212v423l366 212 367-212v-423l-367-212zm-928 0l-366 212v423l366 212 366-212v-423l-366-212zm-929 0l-366 212v423l366 212 366-212v-423l-366-212zm-928 0l-366 212v423l366 212 366-212v-423l-366-212zm-929 0l-366 212v423l366 212 366-212v-423l-366-212zm26460-805l-366 211v424l366 211 366-211v-424l-366-211zm-929 0l-366 211v424l366 211 366-211v-424l-366-211zm-928 0l-366 211v424l366 211 366-211v-424l-366-211zm-929 0l-366 211v424l366 211 366-211v-424l-366-211zm-928 0l-367 211v424l367 211 366-211v-424l-366-211zm-929 0l-366 211v424l366 211 366-211v-424l-366-211zm-928 0l-367 211v424l367 211 366-211v-424l-366-211zm-929 0l-366 211v424l366 211 366-211v-424l-366-211zm-929 0l-366 211v424l366 211 367-211v-424l-367-211zm-928 0l-366 211v424l366 211 366-211v-424l-366-211zm-929 0l-366 211v424l366 211 366-211v-424l-366-211zm-928 0l-366 211v424l366 211 366-211v-424l-366-211zm-929 0l-366 211v424l366 211 366-211v-424l-366-211zm-928 0l-366 211v424l366 211 366-211v-424l-366-211zm-929 0l-366 211v424l366 211 366-211v-424l-366-211zm-928 0l-367 211v424l367 211 366-211v-424l-366-211zm-929 0l-366 211v424l366 211 366-211v-424l-366-211zm-929 0l-366 211v424l366 211 367-211v-424l-367-211zm-928 0l-366 211v424l366 211 366-211v-424l-366-211zm-929 0l-366 211v424l366 211 367-211v-424l-367-211zm-928 0l-366 211v424l366 211 366-211v-424l-366-211zm-929 0l-366 211v424l366 211 366-211v-424l-366-211zm-928 0l-366 211v424l366 211 366-211v-424l-366-211zm-929 0l-366 211v424l366 211 366-211v-424l-366-211zm-928 0l-367 211v424l367 211 366-211v-424l-366-211zm-929 0l-366 211v424l366 211 366-211v-424l-366-211zm-928 0l-367 211v424l367 211 366-211v-424l-366-211zm-929 0l-366 211v424l366 211 366-211v-424l-366-211zm-929 0l-366 211v424l366 211 367-211v-424l-367-211zm25540-813l-367 211v424l367 211 366-211v-424l-366-211zm-929 0l-366 211v424l366 211 366-211v-424l-366-211zm-928 0l-367 211v424l367 211 366-211v-424l-366-211zm-929 0l-366 211v424l366 211 366-211v-424l-366-211zm-929 0l-366 211v424l366 211 367-211v-424l-367-211zm-928 0l-366 211v424l366 211 366-211v-424l-366-211zm-929 0l-366 211v424l366 211 366-211v-424l-366-211zm-928 0l-366 211v424l366 211 366-211v-424l-366-211zm-929 0l-366 211v424l366 211 366-211v-424l-366-211zm-928 0l-366 211v424l366 211 366-211v-424l-366-211zm-929 0l-366 211v424l366 211 366-211v-424l-366-211zm-928 0l-367 211v424l367 211 366-211v-424l-366-211zm-929 0l-366 211v424l366 211 366-211v-424l-366-211zm-929 0l-366 211v424l366 211 367-211v-424l-367-211zm-928 0l-366 211v424l366 211 366-211v-424l-366-211zm-929 0l-366 211v424l366 211 367-211v-424l-367-211zm-928 0l-366 211v424l366 211 366-211v-424l-366-211zm-929 0l-366 211v424l366 211 366-211v-424l-366-211zm-928 0l-366 211v424l366 211 366-211v-424l-366-211zm-929 0l-366 211v424l366 211 366-211v-424l-366-211zm-928 0l-367 211v424l367 211 366-211v-424l-366-211zm-929 0l-366 211v424l366 211 366-211v-424l-366-211zm-928 0l-367 211v424l367 211 366-211v-424l-366-211zm-929 0l-366 211v424l366 211 366-211v-424l-366-211zm-929 0l-366 211v424l366 211 367-211v-424l-367-211zm-928 0l-366 211v424l366 211 366-211v-424l-366-211zm-929 0l-366 211v424l366 211 366-211v-424l-366-211zm-928 0l-366 211v424l366 211 366-211v-424l-366-211zm-929 0l-366 211v424l366 211 366-211v-424l-366-211zm26460-806l-366 211v424l366 211 366-211v-424l-366-211zm-929 0l-366 211v424l366 211 366-211v-424l-366-211zm-928 0l-366 211v424l366 211 366-211v-424l-366-211zm-929 0l-366 211v424l366 211 366-211v-424l-366-211zm-928 0l-367 211v424l367 211 366-211v-424l-366-211zm-929 0l-366 211v424l366 211 366-211v-424l-366-211zm-928 0l-367 211v424l367 211 366-211v-424l-366-211zm-929 0l-366 211v424l366 211 366-211v-424l-366-211zm-929 0l-366 211v424l366 211 367-211v-424l-367-211zm-928 0l-366 211v424l366 211 366-211v-424l-366-211zm-929 0l-366 211v424l366 211 366-211v-424l-366-211zm-928 0l-366 211v424l366 211 366-211v-424l-366-211zm-929 0l-366 211v424l366 211 366-211v-424l-366-211zm-928 0l-366 211v424l366 211 366-211v-424l-366-211zm-929 0l-366 211v424l366 211 366-211v-424l-366-211zm-928 0l-367 211v424l367 211 366-211v-424l-366-211zm-929 0l-366 211v424l366 211 366-211v-424l-366-211zm-929 0l-366 211v424l366 211 367-211v-424l-367-211zm-928 0l-366 211v424l366 211 366-211v-424l-366-211zm-929 0l-366 211v424l366 211 367-211v-424l-367-211zm-928 0l-366 211v424l366 211 366-211v-424l-366-211zm-929 0l-366 211v424l366 211 366-211v-424l-366-211zm-928 0l-366 211v424l366 211 366-211v-424l-366-211zm-929 0l-366 211v424l366 211 366-211v-424l-366-211zm-928 0l-367 211v424l367 211 366-211v-424l-366-211zm-929 0l-366 211v424l366 211 366-211v-424l-366-211zm-928 0l-367 211v424l367 211 366-211v-424l-366-211zm-929 0l-366 211v424l366 211 366-211v-424l-366-211zm-929 0l-366 211v424l366 211 367-211v-424l-367-211zm25540-813l-367 212v423l367 212 366-212v-423l-366-212zm-929 0l-366 212v423l366 212 366-212v-423l-366-212zm-928 0l-367 212v423l367 212 366-212v-423l-366-212zm-929 0l-366 212v423l366 212 366-212v-423l-366-212zm-929 0l-366 212v423l366 212 367-212v-423l-367-212zm-928 0l-366 212v423l366 212 366-212v-423l-366-212zm-929 0l-366 212v423l366 212 366-212v-423l-366-212zm-928 0l-366 212v423l366 212 366-212v-423l-366-212zm-929 0l-366 212v423l366 212 366-212v-423l-366-212zm-928 0l-366 212v423l366 212 366-212v-423l-366-212zm-929 0l-366 212v423l366 212 366-212v-423l-366-212zm-928 0l-367 212v423l367 212 366-212v-423l-366-212zm-929 0l-366 212v423l366 212 366-212v-423l-366-212zm-929 0l-366 212v423l366 212 367-212v-423l-367-212zm-928 0l-366 212v423l366 212 366-212v-423l-366-212zm-929 0l-366 212v423l366 212 367-212v-423l-367-212zm-928 0l-366 212v423l366 212 366-212v-423l-366-212zm-929 0l-366 212v423l366 212 366-212v-423l-366-212zm-928 0l-366 212v423l366 212 366-212v-423l-366-212zm-929 0l-366 212v423l366 212 366-212v-423l-366-212zm-928 0l-367 212v423l367 212 366-212v-423l-366-212zm-929 0l-366 212v423l366 212 366-212v-423l-366-212zm-928 0l-367 212v423l367 212 366-212v-423l-366-212zm-929 0l-366 212v423l366 212 366-212v-423l-366-212zm-929 0l-366 212v423l366 212 367-212v-423l-367-212zm-928 0l-366 212v423l366 212 366-212v-423l-366-212zm-929 0l-366 212v423l366 212 366-212v-423l-366-212zm-928 0l-366 212v423l366 212 366-212v-423l-366-212zm-929 0l-366 212v423l366 212 366-212v-423l-366-212zm26460-806l-366 212v423l366 212 366-212v-423l-366-212zm-929 0l-366 212v423l366 212 366-212v-423l-366-212zm-928 0l-366 212v423l366 212 366-212v-423l-366-212zm-929 0l-366 212v423l366 212 366-212v-423l-366-212zm-928 0l-367 212v423l367 212 366-212v-423l-366-212zm-929 0l-366 212v423l366 212 366-212v-423l-366-212zm-928 0l-367 212v423l367 212 366-212v-423l-366-212zm-929 0l-366 212v423l366 212 366-212v-423l-366-212zm-929 0l-366 212v423l366 212 367-212v-423l-367-212zm-928 0l-366 212v423l366 212 366-212v-423l-366-212zm-929 0l-366 212v423l366 212 366-212v-423l-366-212zm-928 0l-366 212v423l366 212 366-212v-423l-366-212zm-929 0l-366 212v423l366 212 366-212v-423l-366-212zm-928 0l-366 212v423l366 212 366-212v-423l-366-212zm-929 0l-366 212v423l366 212 366-212v-423l-366-212zm-928 0l-367 212v423l367 212 366-212v-423l-366-212zm-929 0l-366 212v423l366 212 366-212v-423l-366-212zm-929 0l-366 212v423l366 212 367-212v-423l-367-212zm-928 0l-366 212v423l366 212 366-212v-423l-366-212zm-929 0l-366 212v423l366 212 367-212v-423l-367-212zm-928 0l-366 212v423l366 212 366-212v-423l-366-212zm-929 0l-366 212v423l366 212 366-212v-423l-366-212zm-928 0l-366 212v423l366 212 366-212v-423l-366-212zm-929 0l-366 212v423l366 212 366-212v-423l-366-212zm-928 0l-367 212v423l367 212 366-212v-423l-366-212zm-929 0l-366 212v423l366 212 366-212v-423l-366-212zm-928 0l-367 212v423l367 212 366-212v-423l-366-212zm-929 0l-366 212v423l366 212 366-212v-423l-366-212zm-929 0l-366 212v423l366 212 367-212v-423l-367-212zm25540-812l-367 211v424l367 211 366-211v-424l-366-211zm-929 0l-366 211v424l366 211 366-211v-424l-366-211zm-928 0l-367 211v424l367 211 366-211v-424l-366-211zm-929 0l-366 211v424l366 211 366-211v-424l-366-211zm-929 0l-366 211v424l366 211 367-211v-424l-367-211zm-928 0l-366 211v424l366 211 366-211v-424l-366-211zm-929 0l-366 211v424l366 211 366-211v-424l-366-211zm-928 0l-366 211v424l366 211 366-211v-424l-366-211zm-929 0l-366 211v424l366 211 366-211v-424l-366-211zm-928 0l-366 211v424l366 211 366-211v-424l-366-211zm-929 0l-366 211v424l366 211 366-211v-424l-366-211zm-928 0l-367 211v424l367 211 366-211v-424l-366-211zm-929 0l-366 211v424l366 211 366-211v-424l-366-211zm-929 0l-366 211v424l366 211 367-211v-424l-367-211zm-928 0l-366 211v424l366 211 366-211v-424l-366-211zm-929 0l-366 211v424l366 211 367-211v-424l-367-211zm-928 0l-366 211v424l366 211 366-211v-424l-366-211zm-929 0l-366 211v424l366 211 366-211v-424l-366-211zm-928 0l-366 211v424l366 211 366-211v-424l-366-211zm-929 0l-366 211v424l366 211 366-211v-424l-366-211zm-928 0l-367 211v424l367 211 366-211v-424l-366-211zm-929 0l-366 211v424l366 211 366-211v-424l-366-211zm-928 0l-367 211v424l367 211 366-211v-424l-366-211zm-929 0l-366 211v424l366 211 366-211v-424l-366-211zm-929 0l-366 211v424l366 211 367-211v-424l-367-211zm-928 0l-366 211v424l366 211 366-211v-424l-366-211zm-929 0l-366 211v424l366 211 366-211v-424l-366-211zm-928 0l-366 211v424l366 211 366-211v-424l-366-211zm-929 0l-366 211v424l366 211 366-211v-424l-366-211zm26460-806l-366 211v424l366 211 366-211v-424l-366-211zm-929 0l-366 211v424l366 211 366-211v-424l-366-211zm-928 0l-366 211v424l366 211 366-211v-424l-366-211zm-929 0l-366 211v424l366 211 366-211v-424l-366-211zm-928 0l-367 211v424l367 211 366-211v-424l-366-211zm-929 0l-366 211v424l366 211 366-211v-424l-366-211zm-928 0l-367 211v424l367 211 366-211v-424l-366-211zm-929 0l-366 211v424l366 211 366-211v-424l-366-211zm-929 0l-366 211v424l366 211 367-211v-424l-367-211zm-928 0l-366 211v424l366 211 366-211v-424l-366-211zm-929 0l-366 211v424l366 211 366-211v-424l-366-211zm-928 0l-366 211v424l366 211 366-211v-424l-366-211zm-929 0l-366 211v424l366 211 366-211v-424l-366-211zm-928 0l-366 211v424l366 211 366-211v-424l-366-211zm-929 0l-366 211v424l366 211 366-211v-424l-366-211zm-928 0l-367 211v424l367 211 366-211v-424l-366-211zm-929 0l-366 211v424l366 211 366-211v-424l-366-211zm-929 0l-366 211v424l366 211 367-211v-424l-367-211zm-928 0l-366 211v424l366 211 366-211v-424l-366-211zm-929 0l-366 211v424l366 211 367-211v-424l-367-211zm-928 0l-366 211v424l366 211 366-211v-424l-366-211zm-929 0l-366 211v424l366 211 366-211v-424l-366-211zm-928 0l-366 211v424l366 211 366-211v-424l-366-211zm-929 0l-366 211v424l366 211 366-211v-424l-366-211zm-928 0l-367 211v424l367 211 366-211v-424l-366-211zm-929 0l-366 211v424l366 211 366-211v-424l-366-211zm-928 0l-367 211v424l367 211 366-211v-424l-366-211zm-929 0l-366 211v424l366 211 366-211v-424l-366-211zm-929 0l-366 211v424l366 211 367-211v-424l-367-211zm25540-813l-367 211v424l367 211 366-211v-424l-366-211zm-929 0l-366 211v424l366 211 366-211v-424l-366-211zm-928 0l-367 211v424l367 211 366-211v-424l-366-211zm-929 0l-366 211v424l366 211 366-211v-424l-366-211zm-929 0l-366 211v424l366 211 367-211v-424l-367-211zm-928 0l-366 211v424l366 211 366-211v-424l-366-211zm-929 0l-366 211v424l366 211 366-211v-424l-366-211zm-928 0l-366 211v424l366 211 366-211v-424l-366-211zm-929 0l-366 211v424l366 211 366-211v-424l-366-211zm-928 0l-366 211v424l366 211 366-211v-424l-366-211zm-929 0l-366 211v424l366 211 366-211v-424l-366-211zm-928 0l-367 211v424l367 211 366-211v-424l-366-211zm-929 0l-366 211v424l366 211 366-211v-424l-366-211zm-929 0l-366 211v424l366 211 367-211v-424l-367-211zm-928 0l-366 211v424l366 211 366-211v-424l-366-211zm-929 0l-366 211v424l366 211 367-211v-424l-367-211zm-928 0l-366 211v424l366 211 366-211v-424l-366-211zm-929 0l-366 211v424l366 211 366-211v-424l-366-211zm-928 0l-366 211v424l366 211 366-211v-424l-366-211zm-929 0l-366 211v424l366 211 366-211v-424l-366-211zm-928 0l-367 211v424l367 211 366-211v-424l-366-211zm-929 0l-366 211v424l366 211 366-211v-424l-366-211zm-928 0l-367 211v424l367 211 366-211v-424l-366-211zm-929 0l-366 211v424l366 211 366-211v-424l-366-211zm-929 0l-366 211v424l366 211 367-211v-424l-367-211zm-928 0l-366 211v424l366 211 366-211v-424l-366-211zm-929 0l-366 211v424l366 211 366-211v-424l-366-211zm-928 0l-366 211v424l366 211 366-211v-424l-366-211zm-929 0l-366 211v424l366 211 366-211v-424l-366-211zm26460-806l-366 212v423l366 212 366-212v-423l-366-212zm-929 0l-366 212v423l366 212 366-212v-423l-366-212zm-928 0l-366 212v423l366 212 366-212v-423l-366-212zm-929 0l-366 212v423l366 212 366-212v-423l-366-212zm-928 0l-367 212v423l367 212 366-212v-423l-366-212zm-929 0l-366 212v423l366 212 366-212v-423l-366-212zm-928 0l-367 212v423l367 212 366-212v-423l-366-212zm-929 0l-366 212v423l366 212 366-212v-423l-366-212zm-929 0l-366 212v423l366 212 367-212v-423l-367-212zm-928 0l-366 212v423l366 212 366-212v-423l-366-212zm-929 0l-366 212v423l366 212 366-212v-423l-366-212zm-928 0l-366 212v423l366 212 366-212v-423l-366-212zm-929 0l-366 212v423l366 212 366-212v-423l-366-212zm-928 0l-366 212v423l366 212 366-212v-423l-366-212zm-929 0l-366 212v423l366 212 366-212v-423l-366-212zm-928 0l-367 212v423l367 212 366-212v-423l-366-212zm-929 0l-366 212v423l366 212 366-212v-423l-366-212zm-929 0l-366 212v423l366 212 367-212v-423l-367-212zm-928 0l-366 212v423l366 212 366-212v-423l-366-212zm-929 0l-366 212v423l366 212 367-212v-423l-367-212zm-928 0l-366 212v423l366 212 366-212v-423l-366-212zm-929 0l-366 212v423l366 212 366-212v-423l-366-212zm-928 0l-366 212v423l366 212 366-212v-423l-366-212zm-929 0l-366 212v423l366 212 366-212v-423l-366-212zm-928 0l-367 212v423l367 212 366-212v-423l-366-212zm-929 0l-366 212v423l366 212 366-212v-423l-366-212zm-928 0l-367 212v423l367 212 366-212v-423l-366-212zm-929 0l-366 212v423l366 212 366-212v-423l-366-212zm-929 0l-366 212v423l366 212 367-212v-423l-367-212z"/>
</svg>
