<?xml version="1.0" encoding="UTF-8"?>
<!DOCTYPE svg  PUBLIC '-//W3C//DTD SVG 1.1//EN'  'http://www.w3.org/Graphics/SVG/1.1/DTD/svg11.dtd'>
<svg width="677.33mm" height="381mm" clip-rule="evenodd" fill-rule="evenodd" image-rendering="optimizeQuality" shape-rendering="geometricPrecision" text-rendering="geometricPrecision" version="1.1" viewBox="0 0 67733 38100" xml:space="preserve" xmlns="http://www.w3.org/2000/svg">
 <defs>
  <style type="text/css">
    .fil2 {fill:url(#ez);fill-rule:nonzero}
    .fil97 {fill:url(#fa);fill-rule:nonzero}
    .fil94 {fill:url(#gv);fill-rule:nonzero}
    .fil16 {fill:url(#hh);fill-rule:nonzero}
    .fil66 {fill:url(#hs);fill-rule:nonzero}
    .fil71 {fill:url(#id);fill-rule:nonzero}
    .fil123 {fill:url(#ip);fill-rule:nonzero}
    .fil114 {fill:url(#ja);fill-rule:nonzero}
    .fil120 {fill:url(#ei);fill-rule:nonzero}
    .fil121 {fill:url(#et);fill-rule:nonzero}
    .fil33 {fill:url(#fb);fill-rule:nonzero}
    .fil109 {fill:url(#fn);fill-rule:nonzero}
    .fil106 {fill:url(#fy);fill-rule:nonzero}
    .fil14 {fill:url(#gk);fill-rule:nonzero}
    .fil1 {fill:url(#gp);fill-rule:nonzero}
    .fil20 {fill:url(#gq);fill-rule:nonzero}
    .fil13 {fill:url(#gr);fill-rule:nonzero}
    .fil125 {fill:url(#gs);fill-rule:nonzero}
    .fil45 {fill:url(#gt);fill-rule:nonzero}
    .fil82 {fill:url(#gu);fill-rule:nonzero}
    .fil46 {fill:url(#gw);fill-rule:nonzero}
    .fil129 {fill:url(#gx);fill-rule:nonzero}
    .fil53 {fill:url(#gy);fill-rule:nonzero}
    .fil54 {fill:url(#gz);fill-rule:nonzero}
    .fil28 {fill:url(#ha);fill-rule:nonzero}
    .fil61 {fill:url(#hb);fill-rule:nonzero}
    .fil81 {fill:url(#hc);fill-rule:nonzero}
    .fil67 {fill:url(#hd);fill-rule:nonzero}
    .fil15 {fill:url(#he);fill-rule:nonzero}
    .fil126 {fill:url(#hg);fill-rule:nonzero}
    .fil108 {fill:url(#hi);fill-rule:nonzero}
    .fil107 {fill:url(#hj);fill-rule:nonzero}
    .fil128 {fill:url(#hk);fill-rule:nonzero}
    .fil24 {fill:url(#hl);fill-rule:nonzero}
    .fil127 {fill:url(#hm);fill-rule:nonzero}
    .fil115 {fill:url(#hn);fill-rule:nonzero}
    .fil80 {fill:url(#ho);fill-rule:nonzero}
    .fil98 {fill:url(#hp);fill-rule:nonzero}
    .fil43 {fill:url(#hq);fill-rule:nonzero}
    .fil44 {fill:url(#hr);fill-rule:nonzero}
    .fil92 {fill:url(#ht);fill-rule:nonzero}
    .fil95 {fill:url(#hu);fill-rule:nonzero}
    .fil111 {fill:url(#hv);fill-rule:nonzero}
    .fil112 {fill:url(#hw);fill-rule:nonzero}
    .fil133 {fill:url(#hx);fill-rule:nonzero}
    .fil132 {fill:url(#hy);fill-rule:nonzero}
    .fil11 {fill:url(#hz);fill-rule:nonzero}
    .fil22 {fill:url(#ia);fill-rule:nonzero}
    .fil32 {fill:url(#ib);fill-rule:nonzero}
    .fil113 {fill:url(#ic);fill-rule:nonzero}
    .fil122 {fill:url(#ie);fill-rule:nonzero}
    .fil88 {fill:url(#if);fill-rule:nonzero}
    .fil63 {fill:url(#ih);fill-rule:nonzero}
    .fil41 {fill:url(#ii);fill-rule:nonzero}
    .fil42 {fill:url(#ij);fill-rule:nonzero}
    .fil35 {fill:url(#ik);fill-rule:nonzero}
    .fil117 {fill:url(#il);fill-rule:nonzero}
    .fil6 {fill:url(#im);fill-rule:nonzero}
    .fil5 {fill:url(#in);fill-rule:nonzero}
    .fil110 {fill:url(#io);fill-rule:nonzero}
    .fil119 {fill:url(#iq);fill-rule:nonzero}
    .fil118 {fill:url(#ir);fill-rule:nonzero}
    .fil84 {fill:url(#is);fill-rule:nonzero}
    .fil68 {fill:url(#it);fill-rule:nonzero}
    .fil48 {fill:url(#iu);fill-rule:nonzero}
    .fil47 {fill:url(#iv);fill-rule:nonzero}
    .fil93 {fill:url(#iw);fill-rule:nonzero}
    .fil3 {fill:url(#ix);fill-rule:nonzero}
    .fil104 {fill:url(#iy);fill-rule:nonzero}
    .fil105 {fill:url(#iz);fill-rule:nonzero}
    .fil75 {fill:url(#jb);fill-rule:nonzero}
    .fil64 {fill:url(#jc);fill-rule:nonzero}
    .fil79 {fill:url(#jd);fill-rule:nonzero}
    .fil103 {fill:url(#je);fill-rule:nonzero}
    .fil4 {fill:url(#jf);fill-rule:nonzero}
    .fil26 {fill:url(#jg);fill-rule:nonzero}
    .fil18 {fill:url(#ee);fill-rule:nonzero}
    .fil55 {fill:url(#ef);fill-rule:nonzero}
    .fil60 {fill:url(#eg);fill-rule:nonzero}
    .fil17 {fill:url(#eh);fill-rule:nonzero}
    .fil19 {fill:url(#ej);fill-rule:nonzero}
    .fil52 {fill:url(#ek);fill-rule:nonzero}
    .fil102 {fill:url(#el);fill-rule:nonzero}
    .fil73 {fill:url(#em);fill-rule:nonzero}
    .fil72 {fill:url(#en);fill-rule:nonzero}
    .fil130 {fill:url(#eo);fill-rule:nonzero}
    .fil27 {fill:url(#ep);fill-rule:nonzero}
    .fil31 {fill:url(#eq);fill-rule:nonzero}
    .fil87 {fill:url(#er);fill-rule:nonzero}
    .fil131 {fill:url(#es);fill-rule:nonzero}
    .fil83 {fill:url(#eu);fill-rule:nonzero}
    .fil70 {fill:url(#ev);fill-rule:nonzero}
    .fil65 {fill:url(#ew);fill-rule:nonzero}
    .fil116 {fill:url(#ex);fill-rule:nonzero}
    .fil21 {fill:url(#ey);fill-rule:nonzero}
    .fil124 {fill:url(#fd);fill-rule:nonzero}
    .fil74 {fill:url(#ge);fill-rule:nonzero}
    .fil29 {fill:url(#hf);fill-rule:nonzero}
    .fil30 {fill:url(#ig);fill-rule:nonzero}
    .fil89 {fill:url(#jh);fill-rule:nonzero}
    .fil37 {fill:url(#fc);fill-rule:nonzero}
    .fil40 {fill:url(#fe);fill-rule:nonzero}
    .fil85 {fill:url(#ff);fill-rule:nonzero}
    .fil38 {fill:url(#fg);fill-rule:nonzero}
    .fil100 {fill:url(#fh);fill-rule:nonzero}
    .fil7 {fill:url(#fi);fill-rule:nonzero}
    .fil34 {fill:url(#fj);fill-rule:nonzero}
    .fil51 {fill:url(#fk);fill-rule:nonzero}
    .fil62 {fill:url(#fl);fill-rule:nonzero}
    .fil86 {fill:url(#fm);fill-rule:nonzero}
    .fil101 {fill:url(#fo);fill-rule:nonzero}
    .fil59 {fill:url(#fp);fill-rule:nonzero}
    .fil25 {fill:url(#fq);fill-rule:nonzero}
    .fil99 {fill:url(#fr);fill-rule:nonzero}
    .fil9 {fill:url(#fs);fill-rule:nonzero}
    .fil10 {fill:url(#ft);fill-rule:nonzero}
    .fil12 {fill:url(#fu);fill-rule:nonzero}
    .fil39 {fill:url(#fv);fill-rule:nonzero}
    .fil58 {fill:url(#fw);fill-rule:nonzero}
    .fil36 {fill:url(#fx);fill-rule:nonzero}
    .fil8 {fill:url(#fz);fill-rule:nonzero}
    .fil56 {fill:url(#ga);fill-rule:nonzero}
    .fil57 {fill:url(#gb);fill-rule:nonzero}
    .fil23 {fill:url(#gc);fill-rule:nonzero}
    .fil90 {fill:url(#gd);fill-rule:nonzero}
    .fil91 {fill:url(#gf);fill-rule:nonzero}
    .fil0 {fill:url(#gg);fill-rule:nonzero}
    .fil50 {fill:url(#gh);fill-rule:nonzero}
    .fil76 {fill:url(#gi);fill-rule:nonzero}
    .fil77 {fill:url(#gj);fill-rule:nonzero}
    .fil96 {fill:url(#gl);fill-rule:nonzero}
    .fil78 {fill:url(#gm);fill-rule:nonzero}
    .fil69 {fill:url(#gn);fill-rule:nonzero}
    .fil49 {fill:url(#go);fill-rule:nonzero}
  </style>
  <linearGradient id="ez" x1="51576" x2="54314" y1="19307" y2="20597" gradientUnits="userSpaceOnUse">
   <stop stop-color="#4D623D" offset="0"/>
   <stop stop-color="#4D603A" offset="1"/>
  </linearGradient>
  <linearGradient id="fa" x1="9244" x2="12628" y1="-21.41" y2="4136.8" gradientUnits="userSpaceOnUse">
   <stop stop-color="#567280" offset="0"/>
   <stop stop-color="#607E95" offset="1"/>
  </linearGradient>
  <linearGradient id="gv" x1="62891" x2="66937" y1="36002" y2="38400" gradientUnits="userSpaceOnUse">
   <stop stop-color="#485605" offset="0"/>
   <stop stop-color="#485207" offset="1"/>
  </linearGradient>
  <linearGradient id="hh" x1="48383" x2="54726" y1="20669" y2="25666" gradientUnits="userSpaceOnUse">
   <stop stop-color="#4B5D2F" offset="0"/>
   <stop stop-color="#4D5D26" offset="1"/>
  </linearGradient>
  <linearGradient id="hs" x1="17818" x2="28220" y1="35758" y2="38644" gradientUnits="userSpaceOnUse">
   <stop stop-color="#504D03" offset="0"/>
   <stop stop-color="#545205" offset="1"/>
  </linearGradient>
  <linearGradient id="id" x1="39721" x2="52352" y1="4334.3" y2="10370" gradientUnits="userSpaceOnUse">
   <stop stop-color="#6D8790" offset="0"/>
   <stop stop-color="#607979" offset="1"/>
  </linearGradient>
  <linearGradient id="ip" x1="1159.5" x2="4757.6" y1="-208.92" y2="4498" gradientUnits="userSpaceOnUse">
   <stop stop-color="#446477" offset="0"/>
   <stop stop-color="#4B6979" offset="1"/>
  </linearGradient>
  <linearGradient id="ja" x1="2936.4" x2="12234" y1="16281" y2="23232" gradientUnits="userSpaceOnUse">
   <stop stop-color="#36461D" offset="0"/>
   <stop stop-color="#3A4D2D" offset="1"/>
  </linearGradient>
  <linearGradient id="ei" x1="-180.02" x2="2942.7" y1="4380.3" y2="10541" gradientUnits="userSpaceOnUse">
   <stop stop-color="#385456" offset="0"/>
   <stop stop-color="#3A5452" offset="1"/>
  </linearGradient>
  <linearGradient id="et" x1="32.05" x2="2730.6" y1="105.45" y2="4445" gradientUnits="userSpaceOnUse">
   <stop stop-color="#3B5960" offset="0"/>
   <stop stop-color="#3F5D69" offset="1"/>
  </linearGradient>
  <linearGradient id="fb" x1="39990" x2="47782" y1="59.28" y2="4012.6" gradientUnits="userSpaceOnUse">
   <stop stop-color="#7E9AAA" offset="0"/>
   <stop stop-color="#7C99A8" offset="1"/>
  </linearGradient>
  <linearGradient id="fn" x1="130.15" x2="2806.3" y1="20300" y2="22201" gradientUnits="userSpaceOnUse">
   <stop stop-color="#2F4116" offset="0"/>
   <stop stop-color="#31421A" offset="1"/>
  </linearGradient>
  <linearGradient id="fy" x1="-96.58" x2="3033" y1="22651" y2="24628" gradientUnits="userSpaceOnUse">
   <stop stop-color="#333F11" offset="0"/>
   <stop stop-color="#314115" offset="1"/>
  </linearGradient>
  <linearGradient id="gk" x1="54874" x2="61965" y1="20359" y2="28409" gradientUnits="userSpaceOnUse">
   <stop stop-color="#4D6034" offset="0"/>
   <stop stop-color="#4B5D24" offset="1"/>
  </linearGradient>
  <linearGradient id="gp" x1="27453" x2="39316" y1="-304.77" y2="5940.8" gradientUnits="userSpaceOnUse">
   <stop stop-color="#7791A1" offset="0"/>
   <stop stop-color="#728C99" offset="1"/>
  </linearGradient>
  <linearGradient id="gq" x1="1279.5" x2="9025.1" y1="32522" y2="38230" gradientUnits="userSpaceOnUse">
   <stop stop-color="#3B4105" offset="0"/>
   <stop stop-color="#3F4205" offset="1"/>
  </linearGradient>
  <linearGradient id="gr" x1="55170" x2="61669" y1="23880" y2="28277" gradientUnits="userSpaceOnUse">
   <stop stop-color="#4F5B1A" offset="0"/>
   <stop stop-color="#4D5B21" offset="1"/>
  </linearGradient>
  <linearGradient id="gs" x1="4661.2" x2="8771.6" y1="-204.2" y2="4493.3" gradientUnits="userSpaceOnUse">
   <stop stop-color="#547285" offset="0"/>
   <stop stop-color="#49666E" offset="1"/>
  </linearGradient>
  <linearGradient id="gt" x1="61764" x2="68022" y1="15187" y2="20277" gradientUnits="userSpaceOnUse">
   <stop stop-color="#506644" offset="0"/>
   <stop stop-color="#526B4F" offset="1"/>
  </linearGradient>
  <linearGradient id="gu" x1="48677" x2="55432" y1="26096" y2="36010" gradientUnits="userSpaceOnUse">
   <stop stop-color="#505D18" offset="0"/>
   <stop stop-color="#525D11" offset="1"/>
  </linearGradient>
  <linearGradient id="gw" x1="62367" x2="66942" y1="20860" y2="31340" gradientUnits="userSpaceOnUse">
   <stop stop-color="#4D5B1D" offset="0"/>
   <stop stop-color="#4D5D26" offset="1"/>
  </linearGradient>
  <linearGradient id="gx" x1="15015" x2="23183" y1="4515.9" y2="11622" gradientUnits="userSpaceOnUse">
   <stop stop-color="#567275" offset="0"/>
   <stop stop-color="#56706E" offset="1"/>
  </linearGradient>
  <linearGradient id="gy" x1="37086" x2="48383" y1="20626" y2="33486" gradientUnits="userSpaceOnUse">
   <stop stop-color="#4D5B26" offset="0"/>
   <stop stop-color="#545B16" offset="1"/>
  </linearGradient>
  <linearGradient id="gz" x1="37162" x2="48308" y1="25599" y2="38288" gradientUnits="userSpaceOnUse">
   <stop stop-color="#5D6008" offset="0"/>
   <stop stop-color="#575D11" offset="1"/>
  </linearGradient>
  <linearGradient id="ha" x1="52481" x2="57015" y1="3383.6" y2="10408" gradientUnits="userSpaceOnUse">
   <stop stop-color="#72909E" offset="0"/>
   <stop stop-color="#6B8990" offset="1"/>
  </linearGradient>
  <linearGradient id="hb" x1="-422.86" x2="5309.8" y1="33212" y2="37540" gradientUnits="userSpaceOnUse">
   <stop stop-color="#383F05" offset="0"/>
   <stop stop-color="#3B3D03" offset="1"/>
  </linearGradient>
  <linearGradient id="hc" x1="45077" x2="54392" y1="35979" y2="38684" gradientUnits="userSpaceOnUse">
   <stop stop-color="#596005" offset="0"/>
   <stop stop-color="#505D05" offset="1"/>
  </linearGradient>
  <linearGradient id="hd" x1="18224" x2="29041" y1="31830" y2="38140" gradientUnits="userSpaceOnUse">
   <stop stop-color="#505007" offset="0"/>
   <stop stop-color="#565408" offset="1"/>
  </linearGradient>
  <linearGradient id="he" x1="48383" x2="52641" y1="19235" y2="25666" gradientUnits="userSpaceOnUse">
   <stop stop-color="#4D6036" offset="0"/>
   <stop stop-color="#4D5D2B" offset="1"/>
  </linearGradient>
  <linearGradient id="hg" x1="-399.91" x2="912.37" y1="278.95" y2="2160.4" gradientUnits="userSpaceOnUse">
   <stop stop-color="#3A565E" offset="0"/>
   <stop stop-color="#3B5969" offset="1"/>
  </linearGradient>
  <linearGradient id="hi" x1="-31.95" x2="1056.7" y1="32176" y2="33759" gradientUnits="userSpaceOnUse">
   <stop stop-color="#383B03" offset="0"/>
   <stop stop-color="#363F05" offset="1"/>
  </linearGradient>
  <linearGradient id="hj" x1="-178.12" x2="1202.9" y1="30220" y2="32418" gradientUnits="userSpaceOnUse">
   <stop stop-color="#343F0C" offset="0"/>
   <stop stop-color="#363F08" offset="1"/>
  </linearGradient>
  <linearGradient id="hk" x1="12234" x2="23444" y1="11849" y2="18453" gradientUnits="userSpaceOnUse">
   <stop stop-color="#42563B" offset="0"/>
   <stop stop-color="#485B42" offset="1"/>
  </linearGradient>
  <linearGradient id="hl" x1="3635.1" x2="13882" y1="23511" y2="27602" gradientUnits="userSpaceOnUse">
   <stop stop-color="#3B460F" offset="0"/>
   <stop stop-color="#3B4613" offset="1"/>
  </linearGradient>
  <linearGradient id="hm" x1="12234" x2="23444" y1="4289.1" y2="16281" gradientUnits="userSpaceOnUse">
   <stop stop-color="#445B46" offset="0"/>
   <stop stop-color="#506962" offset="1"/>
  </linearGradient>
  <linearGradient id="hn" x1="4848.2" x2="9192.9" y1="13152" y2="17410" gradientUnits="userSpaceOnUse">
   <stop stop-color="#384D2F" offset="0"/>
   <stop stop-color="#3B523A" offset="1"/>
  </linearGradient>
  <linearGradient id="ho" x1="43915" x2="51743" y1="25648" y2="38240" gradientUnits="userSpaceOnUse">
   <stop stop-color="#5B6008" offset="0"/>
   <stop stop-color="#545D0F" offset="1"/>
  </linearGradient>
  <linearGradient id="hp" x1="11848" x2="13577" y1="314.35" y2="3974.8" gradientUnits="userSpaceOnUse">
   <stop stop-color="#56727B" offset="0"/>
   <stop stop-color="#607C89" offset="1"/>
  </linearGradient>
  <linearGradient id="hq" x1="63939" x2="68454" y1="8561.1" y2="13506" gradientUnits="userSpaceOnUse">
   <stop stop-color="#678387" offset="0"/>
   <stop stop-color="#62807E" offset="1"/>
  </linearGradient>
  <linearGradient id="hr" x1="61874" x2="65305" y1="20443" y2="28325" gradientUnits="userSpaceOnUse">
   <stop stop-color="#4D6236" offset="0"/>
   <stop stop-color="#4D602D" offset="1"/>
  </linearGradient>
  <linearGradient id="ht" x1="64183" x2="68210" y1="32876" y2="35226" gradientUnits="userSpaceOnUse">
   <stop stop-color="#49560A" offset="0"/>
   <stop stop-color="#49560E" offset="1"/>
  </linearGradient>
  <linearGradient id="hu" x1="64297" x2="68096" y1="35920" y2="38091" gradientUnits="userSpaceOnUse">
   <stop stop-color="#495408" offset="0"/>
   <stop stop-color="#485208" offset="1"/>
  </linearGradient>
  <linearGradient id="hv" x1="-157.87" x2="5006" y1="10740" y2="18319" gradientUnits="userSpaceOnUse">
   <stop stop-color="#314626" offset="0"/>
   <stop stop-color="#344B31" offset="1"/>
  </linearGradient>
  <linearGradient id="hw" x1="-145.28" x2="4993.4" y1="17545" y2="23098" gradientUnits="userSpaceOnUse">
   <stop stop-color="#31441F" offset="0"/>
   <stop stop-color="#34461F" offset="1"/>
  </linearGradient>
  <linearGradient id="hx" x1="23660" x2="34046" y1="5884.5" y2="17814" gradientUnits="userSpaceOnUse">
   <stop stop-color="#5B7470" offset="0"/>
   <stop stop-color="#4F6250" offset="1"/>
  </linearGradient>
  <linearGradient id="hy" x1="23768" x2="33938" y1="12112" y2="20362" gradientUnits="userSpaceOnUse">
   <stop stop-color="#485936" offset="0"/>
   <stop stop-color="#4B5E46" offset="1"/>
  </linearGradient>
  <linearGradient id="hz" x1="52766" x2="54601" y1="19863" y2="23343" gradientUnits="userSpaceOnUse">
   <stop stop-color="#4B5E34" offset="0"/>
   <stop stop-color="#4D5E34" offset="1"/>
  </linearGradient>
  <linearGradient id="ia" x1="5493.1" x2="12541" y1="33168" y2="38279" gradientUnits="userSpaceOnUse">
   <stop stop-color="#414205" offset="0"/>
   <stop stop-color="#424605" offset="1"/>
  </linearGradient>
  <linearGradient id="ib" x1="40372" x2="44071" y1="-843.5" y2="1743.7" gradientUnits="userSpaceOnUse">
   <stop stop-color="#839EB1" offset="0"/>
   <stop stop-color="#87A5BC" offset="1"/>
  </linearGradient>
  <linearGradient id="ic" x1="565.93" x2="6697.3" y1="10700" y2="17343" gradientUnits="userSpaceOnUse">
   <stop stop-color="#364D3B" offset="0"/>
   <stop stop-color="#384D34" offset="1"/>
  </linearGradient>
  <linearGradient id="ie" x1="753.61" x2="6509.6" y1="4643.6" y2="12798" gradientUnits="userSpaceOnUse">
   <stop stop-color="#385044" offset="0"/>
   <stop stop-color="#3B564D" offset="1"/>
  </linearGradient>
  <linearGradient id="if" x1="59106" x2="60469" y1="34170" y2="38233" gradientUnits="userSpaceOnUse">
   <stop stop-color="#4B5905" offset="0"/>
   <stop stop-color="#4B5708" offset="1"/>
  </linearGradient>
  <linearGradient id="ih" x1="12863" x2="17689" y1="35722" y2="38680" gradientUnits="userSpaceOnUse">
   <stop stop-color="#484905" offset="0"/>
   <stop stop-color="#4B4B05" offset="1"/>
  </linearGradient>
  <linearGradient id="ii" x1="60273" x2="67862" y1="9798.2" y2="19809" gradientUnits="userSpaceOnUse">
   <stop stop-color="#5D7770" offset="0"/>
   <stop stop-color="#546D54" offset="1"/>
  </linearGradient>
  <linearGradient id="ij" x1="60104" x2="68032" y1="8124.7" y2="14788" gradientUnits="userSpaceOnUse">
   <stop stop-color="#627E7E" offset="0"/>
   <stop stop-color="#607C79" offset="1"/>
  </linearGradient>
  <linearGradient id="ik" x1="48095" x2="54774" y1="-218.52" y2="3421.4" gradientUnits="userSpaceOnUse">
   <stop stop-color="#7C9AAC" offset="0"/>
   <stop stop-color="#80A1B8" offset="1"/>
  </linearGradient>
  <linearGradient id="il" x1="6759.9" x2="10670" y1="4115.3" y2="14369" gradientUnits="userSpaceOnUse">
   <stop stop-color="#3D5644" offset="0"/>
   <stop stop-color="#445D52" offset="1"/>
  </linearGradient>
  <linearGradient id="im" x1="-52.5" x2="555.86" y1="10728" y2="11062" gradientUnits="userSpaceOnUse">
   <stop stop-color="#2D442F" offset="0"/>
   <stop stop-color="#2F4636" offset="1"/>
  </linearGradient>
  <linearGradient id="in" x1="-392.65" x2="896.01" y1="8438.8" y2="9771.1" gradientUnits="userSpaceOnUse">
   <stop stop-color="#34504D" offset="0"/>
   <stop stop-color="#31493B" offset="1"/>
  </linearGradient>
  <linearGradient id="io" x1="-573.74" x2="1077.1" y1="10926" y2="14156" gradientUnits="userSpaceOnUse">
   <stop stop-color="#2F462B" offset="0"/>
   <stop stop-color="#31482F" offset="1"/>
  </linearGradient>
  <linearGradient id="iq" x1="9192.9" x2="14754" y1="4289.1" y2="16281" gradientUnits="userSpaceOnUse">
   <stop stop-color="#425642" offset="0"/>
   <stop stop-color="#486056" offset="1"/>
  </linearGradient>
  <linearGradient id="ir" x1="9192.9" x2="14754" y1="4115.3" y2="14369" gradientUnits="userSpaceOnUse">
   <stop stop-color="#4D6769" offset="0"/>
   <stop stop-color="#49625D" offset="1"/>
  </linearGradient>
  <linearGradient id="is" x1="52225" x2="57180" y1="34047" y2="38704" gradientUnits="userSpaceOnUse">
   <stop stop-color="#505D08" offset="0"/>
   <stop stop-color="#4D5B08" offset="1"/>
  </linearGradient>
  <linearGradient id="it" x1="39172" x2="48296" y1="900.17" y2="9589.8" gradientUnits="userSpaceOnUse">
   <stop stop-color="#7793A0" offset="0"/>
   <stop stop-color="#6B858C" offset="1"/>
  </linearGradient>
  <linearGradient id="iu" x1="64801" x2="68635" y1="16313" y2="19707" gradientUnits="userSpaceOnUse">
   <stop stop-color="#546E56" offset="0"/>
   <stop stop-color="#506742" offset="1"/>
  </linearGradient>
  <linearGradient id="iv" x1="64363" x2="69073" y1="22080" y2="30120" gradientUnits="userSpaceOnUse">
   <stop stop-color="#4D5B1F" offset="0"/>
   <stop stop-color="#506438" offset="1"/>
  </linearGradient>
  <linearGradient id="iw" x1="67102" x2="68116" y1="31531" y2="32460" gradientUnits="userSpaceOnUse">
   <stop stop-color="#4B5713" offset="0"/>
   <stop stop-color="#4B5718" offset="1"/>
  </linearGradient>
  <linearGradient id="ix" x1="66956" x2="68262" y1="30376" y2="31682" gradientUnits="userSpaceOnUse">
   <stop stop-color="#4D5B1C" offset="0"/>
   <stop stop-color="#50602F" offset="1"/>
  </linearGradient>
  <linearGradient id="iy" x1="-278.06" x2="6082.1" y1="26579" y2="32216" gradientUnits="userSpaceOnUse">
   <stop stop-color="#384108" offset="0"/>
   <stop stop-color="#38420C" offset="1"/>
  </linearGradient>
  <linearGradient id="iz" x1="381.48" x2="5422.5" y1="24024" y2="27089" gradientUnits="userSpaceOnUse">
   <stop stop-color="#344213" offset="0"/>
   <stop stop-color="#36420F" offset="1"/>
  </linearGradient>
  <linearGradient id="jb" x1="33350" x2="40649" y1="20626" y2="33486" gradientUnits="userSpaceOnUse">
   <stop stop-color="#595B0F" offset="0"/>
   <stop stop-color="#52591C" offset="1"/>
  </linearGradient>
  <linearGradient id="jc" x1="29782" x2="38383" y1="33474" y2="38234" gradientUnits="userSpaceOnUse">
   <stop stop-color="#605D0A" offset="0"/>
   <stop stop-color="#605D05" offset="1"/>
  </linearGradient>
  <linearGradient id="jd" x1="31612" x2="40649" y1="20626" y2="30966" gradientUnits="userSpaceOnUse">
   <stop stop-color="#505718" offset="0"/>
   <stop stop-color="#50591D" offset="1"/>
  </linearGradient>
  <linearGradient id="je" x1="19926" x2="26961" y1="19251" y2="30950" gradientUnits="userSpaceOnUse">
   <stop stop-color="#4B5216" offset="0"/>
   <stop stop-color="#46542A" offset="1"/>
  </linearGradient>
  <linearGradient id="jf" x1="34328" x2="38256" y1="-750.7" y2="1650.9" gradientUnits="userSpaceOnUse">
   <stop stop-color="#7E9AAC" offset="0"/>
   <stop stop-color="#85A0B3" offset="1"/>
  </linearGradient>
  <linearGradient id="jg" x1="48618" x2="52579" y1="3723" y2="10112" gradientUnits="userSpaceOnUse">
   <stop stop-color="#708E97" offset="0"/>
   <stop stop-color="#6B878E" offset="1"/>
  </linearGradient>
  <linearGradient id="ee" x1="27441" x2="34262" y1="18062" y2="27577" gradientUnits="userSpaceOnUse">
   <stop stop-color="#48562A" offset="0"/>
   <stop stop-color="#4D5928" offset="1"/>
  </linearGradient>
  <linearGradient id="ef" x1="25008" x2="31612" y1="20626" y2="31748" gradientUnits="userSpaceOnUse">
   <stop stop-color="#495421" offset="0"/>
   <stop stop-color="#4F5413" offset="1"/>
  </linearGradient>
  <linearGradient id="eg" x1="16753" x2="25008" y1="31748" y2="36180" gradientUnits="userSpaceOnUse">
   <stop stop-color="#4D4D08" offset="0"/>
   <stop stop-color="#4D4F0A" offset="1"/>
  </linearGradient>
  <linearGradient id="eh" x1="48677" x2="55432" y1="23780" y2="28377" gradientUnits="userSpaceOnUse">
   <stop stop-color="#4D5D24" offset="0"/>
   <stop stop-color="#4F5B1C" offset="1"/>
  </linearGradient>
  <linearGradient id="ej" x1="31612" x2="40649" y1="18062" y2="27577" gradientUnits="userSpaceOnUse">
   <stop stop-color="#4B5B34" offset="0"/>
   <stop stop-color="#4D5926" offset="1"/>
  </linearGradient>
  <linearGradient id="ek" x1="37401" x2="43059" y1="33723" y2="37985" gradientUnits="userSpaceOnUse">
   <stop stop-color="#606005" offset="0"/>
   <stop stop-color="#606008" offset="1"/>
  </linearGradient>
  <linearGradient id="el" x1="14893" x2="24695" y1="18852" y2="31349" gradientUnits="userSpaceOnUse">
   <stop stop-color="#444D16" offset="0"/>
   <stop stop-color="#49521C" offset="1"/>
  </linearGradient>
  <linearGradient id="em" x1="28272" x2="38950" y1="5884.5" y2="17814" gradientUnits="userSpaceOnUse">
   <stop stop-color="#5D7775" offset="0"/>
   <stop stop-color="#566B5D" offset="1"/>
  </linearGradient>
  <linearGradient id="en" x1="28392" x2="39133" y1="1160.9" y2="9329.1" gradientUnits="userSpaceOnUse">
   <stop stop-color="#678287" offset="0"/>
   <stop stop-color="#6D878E" offset="1"/>
  </linearGradient>
  <linearGradient id="eo" x1="19527" x2="27361" y1="11937" y2="20538" gradientUnits="userSpaceOnUse">
   <stop stop-color="#445636" offset="0"/>
   <stop stop-color="#495B41" offset="1"/>
  </linearGradient>
  <linearGradient id="ep" x1="51576" x2="54314" y1="11082" y2="19176" gradientUnits="userSpaceOnUse">
   <stop stop-color="#4F6446" offset="0"/>
   <stop stop-color="#546B54" offset="1"/>
  </linearGradient>
  <linearGradient id="eq" x1="38333" x2="39986" y1="-29.77" y2="929.95" gradientUnits="userSpaceOnUse">
   <stop stop-color="#8CA7BF" offset="0"/>
   <stop stop-color="#87A3BA" offset="1"/>
  </linearGradient>
  <linearGradient id="er" x1="57433" x2="59580" y1="34342" y2="38061" gradientUnits="userSpaceOnUse">
   <stop stop-color="#4D5B0A" offset="0"/>
   <stop stop-color="#4B5908" offset="1"/>
  </linearGradient>
  <linearGradient id="es" x1="19920" x2="27967" y1="4450.7" y2="11774" gradientUnits="userSpaceOnUse">
   <stop stop-color="#5D777B" offset="0"/>
   <stop stop-color="#597270" offset="1"/>
  </linearGradient>
  <linearGradient id="eu" x1="51772" x2="56638" y1="28576" y2="36441" gradientUnits="userSpaceOnUse">
   <stop stop-color="#525D0A" offset="0"/>
   <stop stop-color="#4F5B0F" offset="1"/>
  </linearGradient>
  <linearGradient id="ev" x1="39858" x2="52215" y1="10020" y2="17762" gradientUnits="userSpaceOnUse">
   <stop stop-color="#526750" offset="0"/>
   <stop stop-color="#5B756E" offset="1"/>
  </linearGradient>
  <linearGradient id="ew" x1="32637" x2="41420" y1="37814" y2="38239" gradientUnits="userSpaceOnUse">
   <stop stop-color="#626005" offset="0"/>
   <stop stop-color="#605E05" offset="1"/>
  </linearGradient>
  <linearGradient id="ex" x1="4848.2" x2="12234" y1="14369" y2="17410" gradientUnits="userSpaceOnUse">
   <stop stop-color="#384D2F" offset="0"/>
   <stop stop-color="#3D5236" offset="1"/>
  </linearGradient>
  <linearGradient id="ey" x1="1354.9" x2="8949.6" y1="28095" y2="33012" gradientUnits="userSpaceOnUse">
   <stop stop-color="#3A4208" offset="0"/>
   <stop stop-color="#3D4408" offset="1"/>
  </linearGradient>
  <linearGradient id="fd" x1="2841.7" x2="10591" y1="4205.7" y2="13062" gradientUnits="userSpaceOnUse">
   <stop stop-color="#3F574B" offset="0"/>
   <stop stop-color="#466264" offset="1"/>
  </linearGradient>
  <linearGradient id="ge" x1="34518" x2="40394" y1="10031" y2="20184" gradientUnits="userSpaceOnUse">
   <stop stop-color="#4D5E42" offset="0"/>
   <stop stop-color="#52674F" offset="1"/>
  </linearGradient>
  <linearGradient id="hf" x1="52902" x2="60114" y1="9416" y2="19626" gradientUnits="userSpaceOnUse">
   <stop stop-color="#526950" offset="0"/>
   <stop stop-color="#5D7974" offset="1"/>
  </linearGradient>
  <linearGradient id="ig" x1="52902" x2="60114" y1="3159.5" y2="10632" gradientUnits="userSpaceOnUse">
   <stop stop-color="#708E9A" offset="0"/>
   <stop stop-color="#628080" offset="1"/>
  </linearGradient>
  <linearGradient id="jh" x1="61349" x2="63398" y1="34442" y2="37961" gradientUnits="userSpaceOnUse">
   <stop stop-color="#495607" offset="0"/>
   <stop stop-color="#4B560A" offset="1"/>
  </linearGradient>
  <linearGradient id="fc" x1="63480" x2="67914" y1="-130.61" y2="3507.4" gradientUnits="userSpaceOnUse">
   <stop stop-color="#779AB1" offset="0"/>
   <stop stop-color="#7C9EBC" offset="1"/>
  </linearGradient>
  <linearGradient id="fe" x1="63756" x2="67638" y1="4637" y2="6852.3" gradientUnits="userSpaceOnUse">
   <stop stop-color="#7291A1" offset="0"/>
   <stop stop-color="#6B8A93" offset="1"/>
  </linearGradient>
  <linearGradient id="ff" x1="55912" x2="60189" y1="28815" y2="34291" gradientUnits="userSpaceOnUse">
   <stop stop-color="#4F5B13" offset="0"/>
   <stop stop-color="#4D590C" offset="1"/>
  </linearGradient>
  <linearGradient id="fg" x1="63329" x2="68065" y1="1962.8" y2="5335.4" gradientUnits="userSpaceOnUse">
   <stop stop-color="#7595A8" offset="0"/>
   <stop stop-color="#7495A7" offset="1"/>
  </linearGradient>
  <linearGradient id="fh" x1="15317" x2="19912" y1="-404.47" y2="4780.5" gradientUnits="userSpaceOnUse">
   <stop stop-color="#607C85" offset="0"/>
   <stop stop-color="#64808C" offset="1"/>
  </linearGradient>
  <linearGradient id="fi" x1="52923" x2="56573" y1="-191.02" y2="3393.9" gradientUnits="userSpaceOnUse">
   <stop stop-color="#7997AA" offset="0"/>
   <stop stop-color="#7C9CB1" offset="1"/>
  </linearGradient>
  <linearGradient id="fj" x1="47588" x2="52254" y1="-90.63" y2="4162.5" gradientUnits="userSpaceOnUse">
   <stop stop-color="#7793A3" offset="0"/>
   <stop stop-color="#7C9AAC" offset="1"/>
  </linearGradient>
  <linearGradient id="fk" x1="46906" x2="52902" y1="10632" y2="19235" gradientUnits="userSpaceOnUse">
   <stop stop-color="#4F6446" offset="0"/>
   <stop stop-color="#546B56" offset="1"/>
  </linearGradient>
  <linearGradient id="fl" x1="8082.9" x2="14171" y1="37458" y2="38377" gradientUnits="userSpaceOnUse">
   <stop stop-color="#424203" offset="0"/>
   <stop stop-color="#484803" offset="1"/>
  </linearGradient>
  <linearGradient id="fm" x1="55853" x2="61985" y1="28689" y2="34069" gradientUnits="userSpaceOnUse">
   <stop stop-color="#4F5B16" offset="0"/>
   <stop stop-color="#4D5B13" offset="1"/>
  </linearGradient>
  <linearGradient id="fo" x1="12451" x2="19230" y1="16591" y2="26311" gradientUnits="userSpaceOnUse">
   <stop stop-color="#3F502D" offset="0"/>
   <stop stop-color="#424F23" offset="1"/>
  </linearGradient>
  <linearGradient id="fp" x1="15310" x2="24278" y1="27047" y2="32278" gradientUnits="userSpaceOnUse">
   <stop stop-color="#444B0F" offset="0"/>
   <stop stop-color="#4B4F0A" offset="1"/>
  </linearGradient>
  <linearGradient id="fq" x1="3052.9" x2="14464" y1="16384" y2="26518" gradientUnits="userSpaceOnUse">
   <stop stop-color="#3D4D2A" offset="0"/>
   <stop stop-color="#3B4816" offset="1"/>
  </linearGradient>
  <linearGradient id="fr" x1="15032" x2="18325" y1="-195.69" y2="4484.8" gradientUnits="userSpaceOnUse">
   <stop stop-color="#6B879C" offset="0"/>
   <stop stop-color="#678390" offset="1"/>
  </linearGradient>
  <linearGradient id="fs" x1="57159" x2="63372" y1="3159.4" y2="9416" gradientUnits="userSpaceOnUse">
   <stop stop-color="#7293A1" offset="0"/>
   <stop stop-color="#6D8C97" offset="1"/>
  </linearGradient>
  <linearGradient id="ft" x1="54685" x2="61546" y1="9739.2" y2="19868" gradientUnits="userSpaceOnUse">
   <stop stop-color="#506648" offset="0"/>
   <stop stop-color="#566E5B" offset="1"/>
  </linearGradient>
  <linearGradient id="fu" x1="54758" x2="61473" y1="19784" y2="23422" gradientUnits="userSpaceOnUse">
   <stop stop-color="#4D6038" offset="0"/>
   <stop stop-color="#4D6034" offset="1"/>
  </linearGradient>
  <linearGradient id="fv" x1="60114" x2="64372" y1="3376.7" y2="9416" gradientUnits="userSpaceOnUse">
   <stop stop-color="#67858A" offset="0"/>
   <stop stop-color="#6E8C99" offset="1"/>
  </linearGradient>
  <linearGradient id="fw" x1="12582" x2="17969" y1="32704" y2="37614" gradientUnits="userSpaceOnUse">
   <stop stop-color="#484905" offset="0"/>
   <stop stop-color="#494B07" offset="1"/>
  </linearGradient>
  <linearGradient id="fx" x1="58491" x2="65014" y1="-188.98" y2="3565.7" gradientUnits="userSpaceOnUse">
   <stop stop-color="#80A1BD" offset="0"/>
   <stop stop-color="#7C9EB8" offset="1"/>
  </linearGradient>
  <linearGradient id="fz" x1="56886" x2="62944" y1="-361.27" y2="3738" gradientUnits="userSpaceOnUse">
   <stop stop-color="#7E9EB8" offset="0"/>
   <stop stop-color="#7797AA" offset="1"/>
  </linearGradient>
  <linearGradient id="ga" x1="9279.8" x2="16753" y1="32704" y2="37614" gradientUnits="userSpaceOnUse">
   <stop stop-color="#424605" offset="0"/>
   <stop stop-color="#464907" offset="1"/>
  </linearGradient>
  <linearGradient id="gb" x1="9279.9" x2="16753" y1="26621" y2="33225" gradientUnits="userSpaceOnUse">
   <stop stop-color="#424608" offset="0"/>
   <stop stop-color="#444B0C" offset="1"/>
  </linearGradient>
  <linearGradient id="gc" x1="5804" x2="14580" y1="26621" y2="33225" gradientUnits="userSpaceOnUse">
   <stop stop-color="#3D460C" offset="0"/>
   <stop stop-color="#3F460C" offset="1"/>
  </linearGradient>
  <linearGradient id="gd" x1="60375" x2="67196" y1="28576" y2="34181" gradientUnits="userSpaceOnUse">
   <stop stop-color="#4D5B16" offset="0"/>
   <stop stop-color="#4B5911" offset="1"/>
  </linearGradient>
  <linearGradient id="gf" x1="60375" x2="67196" y1="31922" y2="36180" gradientUnits="userSpaceOnUse">
   <stop stop-color="#49560A" offset="0"/>
   <stop stop-color="#4B590F" offset="1"/>
  </linearGradient>
  <linearGradient id="gg" x1="20119" x2="27768" y1="-196.79" y2="5832.8" gradientUnits="userSpaceOnUse">
   <stop stop-color="#647E87" offset="0"/>
   <stop stop-color="#6D8793" offset="1"/>
  </linearGradient>
  <linearGradient id="gh" x1="47132" x2="51198" y1="18566" y2="25292" gradientUnits="userSpaceOnUse">
   <stop stop-color="#4F5D28" offset="0"/>
   <stop stop-color="#4D603B" offset="1"/>
  </linearGradient>
  <linearGradient id="gi" x1="25062" x2="33296" y1="30906" y2="38282" gradientUnits="userSpaceOnUse">
   <stop stop-color="#54540A" offset="0"/>
   <stop stop-color="#595908" offset="1"/>
  </linearGradient>
  <linearGradient id="gj" x1="25008" x2="33350" y1="27577" y2="31748" gradientUnits="userSpaceOnUse">
   <stop stop-color="#52540E" offset="0"/>
   <stop stop-color="#545611" offset="1"/>
  </linearGradient>
  <linearGradient id="gl" x1="20183" x2="25655" y1="-369.7" y2="4745.7" gradientUnits="userSpaceOnUse">
   <stop stop-color="#67838C" offset="0"/>
   <stop stop-color="#7590A1" offset="1"/>
  </linearGradient>
  <linearGradient id="gm" x1="29580" x2="37060" y1="30939" y2="38249" gradientUnits="userSpaceOnUse">
   <stop stop-color="#5D5B07" offset="0"/>
   <stop stop-color="#5B5B0A" offset="1"/>
  </linearGradient>
  <linearGradient id="gn" x1="39559" x2="46519" y1="10142" y2="20074" gradientUnits="userSpaceOnUse">
   <stop stop-color="#4D5E3D" offset="0"/>
   <stop stop-color="#546954" offset="1"/>
  </linearGradient>
  <linearGradient id="go" x1="40649" x2="48383" y1="18192" y2="25666" gradientUnits="userSpaceOnUse">
   <stop stop-color="#4B5B31" offset="0"/>
   <stop stop-color="#4D5D2F" offset="1"/>
  </linearGradient>
 </defs>
   <polygon class="fil0" points="28049 5636 27293 0 26001 0 19838 4376"/>
   <polygon class="fil1" points="39476 900 33108 0 27293 0 28049 5636"/>
   <polygon class="fil2" points="51424 19235 52641 20669 54466 19626"/>
   <polygon class="fil3" points="68021 31429 68021 30136 67196 31922"/>
   <polygon class="fil4" points="38316 0 33108 0 39476 900"/>
   <polygon class="fil5" points="0 7452 0 10758 503 10633"/>
   <polygon class="fil6" points="0 10758 0 11158 503 10633"/>
   <polygon class="fil7" points="57159 3159 56457 0 54893 0 52337 3203"/>
   <polygon class="fil8" points="63373 3377 58382 0 56457 0 57159 3159"/>
   <polygon class="fil9" points="63373 3377 57159 3159 60114 9416"/>
   <polygon class="fil10" points="61765 20191 60114 9416 54466 19626"/>
   <polygon class="fil11" points="52641 20669 54726 23580 54466 19626"/>
   <polygon class="fil12" points="54726 23580 61765 20191 54466 19626"/>
   <polygon class="fil13" points="55726 28577 62113 28577 54726 23580"/>
   <polygon class="fil14" points="62113 28577 61765 20191 54726 23580"/>
   <polygon class="fil15" points="51424 19235 48383 25665 52641 20669"/>
   <polygon class="fil16" points="52641 20669 48383 25665 54726 23580"/>
   <polygon class="fil17" points="54726 23580 48383 25665 55726 28577"/>
   <polygon class="fil18" points="27441 20626 31612 27577 34262 18062"/>
   <polygon class="fil19" points="31612 27577 40649 20626 34262 18062"/>
   <polygon class="fil20" points="1025 32530 4887 38222 5452 38222 9280 33225"/>
   <polygon class="fil21" points="1025 32530 9280 33225 5804 27881"/>
   <polygon class="fil22" points="9280 33225 5452 38222 8059 38222 12582 37614"/>
   <polygon class="fil23" points="5804 27881 9280 33225 14580 26621"/>
   <polygon class="fil24" points="2936 23232 5804 27881 14580 26621"/>
   <polygon class="fil25" points="12234 16281 2936 23232 14580 26621"/>
   <polygon class="fil26" points="52337 3203 48296 4072 52902 10633"/>
   <polygon class="fil27" points="52902 10633 51424 19235 54466 19626"/>
   <polygon class="fil28" points="57159 3159 52337 3203 52902 10633"/>
   <polygon class="fil29" points="54466 19626 60114 9416 52902 10633"/>
   <polygon class="fil30" points="60114 9416 57159 3159 52902 10633"/>
   <polygon class="fil31" points="40004 0 38316 0 39476 900"/>
   <polygon class="fil32" points="44967 0 40004 0 39476 900"/>
   <polygon class="fil33" points="48296 4072 47505 0 44967 0 39476 900"/>
   <polygon class="fil34" points="52337 3203 47976 0 47505 0 48296 4072"/>
   <polygon class="fil35" points="54893 0 47976 0 52337 3203"/>
   <polygon class="fil36" points="65122 0 58382 0 63373 3377"/>
   <polygon class="fil37" points="68021 1901 68021 0 65122 0 63373 3377"/>
   <polygon class="fil38" points="68021 5397 68021 1901 63373 3377"/>
   <polygon class="fil39" points="64372 8113 63373 3377 60114 9416"/>
   <polygon class="fil40" points="64372 8113 68021 7548 68021 5397 63373 3377"/>
   <polygon class="fil41" points="61765 20191 68021 15186 68021 14800 60114 9416"/>
   <polygon class="fil42" points="60114 9416 68021 14800 68021 14520 64372 8113"/>
   <polygon class="fil43" points="68021 14520 68021 7548 64372 8113"/>
   <polygon class="fil44" points="65415 20278 61765 20191 62113 28577"/>
   <polygon class="fil45" points="65415 20278 68021 15459 68021 15186 61765 20191"/>
   <polygon class="fil46" points="67196 31922 65415 20278 62113 28577"/>
   <polygon class="fil47" points="67196 31922 68021 30136 68021 20560 65415 20278"/>
   <polygon class="fil48" points="68021 20560 68021 15459 65415 20278"/>
   <polygon class="fil49" points="40649 20626 48383 25665 46906 18192"/>
   <polygon class="fil50" points="46906 18192 48383 25665 51424 19235"/>
   <polygon class="fil51" points="46906 18192 51424 19235 52902 10633"/>
   <polygon class="fil52" points="38390 37831 41420 38222 43374 38222 37087 33486"/>
   <polygon class="fil53" points="37087 33486 48383 25665 40649 20626"/>
   <polygon class="fil54" points="37087 33486 43374 38222 43886 38222 48383 25665"/>
   <polygon class="fil55" points="27441 20626 25008 31748 31612 27577"/>
   <polygon class="fil56" points="9280 33225 12582 37614 16753 32704"/>
   <polygon class="fil57" points="14580 26621 9280 33225 16753 32704"/>
   <polygon class="fil58" points="12582 37614 17969 36180 16753 32704"/>
   <polygon class="fil59" points="16753 32704 25008 31748 14580 26621"/>
   <polygon class="fil60" points="17969 36180 25008 31748 16753 32704"/>
   <polygon class="fil61" points="0 33781 0 38222 4887 38222 1025 32530"/>
   <polygon class="fil62" points="8059 38222 14195 38222 12582 37614"/>
   <polygon class="fil63" points="12582 37614 14195 38222 17701 38222 17969 36180"/>
   <polygon class="fil64" points="37087 33486 29775 38222 32636 38222 38390 37831"/>
   <polygon class="fil65" points="32636 38222 41420 38222 38390 37831"/>
   <polygon class="fil66" points="17701 38222 28337 38222 17969 36180"/>
   <polygon class="fil67" points="17969 36180 28337 38222 29296 38222 25008 31748"/>
   <polygon class="fil68" points="48296 4072 39476 900 39172 9590"/>
   <polygon class="fil69" points="40649 20626 46906 18192 39172 9590"/>
   <polygon class="fil70" points="39172 9590 46906 18192 52902 10633"/>
   <polygon class="fil71" points="52902 10633 48296 4072 39172 9590"/>
   <polygon class="fil72" points="39476 900 28049 5636 39172 9590"/>
   <polygon class="fil73" points="39172 9590 28049 5636 34262 18062"/>
   <polygon class="fil74" points="34262 18062 40649 20626 39172 9590"/>
   <polygon class="fil75" points="33350 30966 37087 33486 40649 20626"/>
   <polygon class="fil76" points="25008 31748 29296 38222 29553 38222 33350 30966"/>
   <polygon class="fil77" points="25008 31748 33350 30966 31612 27577"/>
   <polygon class="fil78" points="33350 30966 29553 38222 29775 38222 37087 33486"/>
   <polygon class="fil79" points="31612 27577 33350 30966 40649 20626"/>
   <polygon class="fil80" points="48383 25665 43886 38222 44943 38222 51772 36441"/>
   <polygon class="fil81" points="44943 38222 54527 38222 51772 36441"/>
   <polygon class="fil82" points="48383 25665 51772 36441 55726 28577"/>
   <polygon class="fil83" points="51772 36441 56638 34529 55726 28577"/>
   <polygon class="fil84" points="51772 36441 54527 38222 57633 38222 56638 34529"/>
   <polygon class="fil85" points="56638 34529 60375 34181 55726 28577"/>
   <polygon class="fil86" points="55726 28577 60375 34181 62113 28577"/>
   <polygon class="fil87" points="56638 34529 57633 38222 59073 38222 60375 34181"/>
   <polygon class="fil88" points="60375 34181 59073 38222 60502 38222"/>
   <polygon class="fil89" points="60375 34181 60502 38222 62786 38222 64372 36180"/>
   <polygon class="fil90" points="62113 28577 60375 34181 67196 31922"/>
   <polygon class="fil91" points="67196 31922 60375 34181 64372 36180"/>
   <polygon class="fil92" points="64372 36180 68021 35789 68021 32563 67196 31922"/>
   <polygon class="fil93" points="68021 32563 68021 31429 67196 31922"/>
   <polygon class="fil94" points="62786 38222 67042 38222 64372 36180"/>
   <polygon class="fil95" points="67042 38222 68021 38222 68021 35789 64372 36180"/>
   <polygon class="fil96" points="26001 0 20475 0 19838 4376"/>
   <polygon class="fil97" points="12654 0 9218 0 10670 4115"/>
   <polygon class="fil98" points="14754 4289 14754 0 12654 0 10670 4115"/>
   <polygon class="fil99" points="18603 0 14754 0 14754 4289"/>
   <polygon class="fil100" points="19838 4376 20475 0 18603 0 14754 4289"/>
   <polygon class="fil101" points="14580 26621 19447 18453 12234 16281"/>
   <polygon class="fil102" points="14580 26621 25008 31748 19447 18453"/>
   <polygon class="fil103" points="19447 18453 25008 31748 27441 20626"/>
   <polygon class="fil104" points="5804 27881 0 26265 0 30108 1025 32530"/>
   <polygon class="fil105" points="2936 23232 0 24781 0 26265 5804 27881"/>
   <polygon class="fil106" points="0 22498 0 24781 2936 23232"/>
   <polygon class="fil107" points="0 30108 0 32154 1025 32530"/>
   <polygon class="fil108" points="0 32154 0 33781 1025 32530"/>
   <polygon class="fil109" points="0 19268 0 22498 2936 23232"/>
   <polygon class="fil110" points="0 11158 0 14450 503 10633"/>
   <polygon class="fil111" points="503 10633 0 14450 0 18427 4848 17410"/>
   <polygon class="fil112" points="4848 17410 0 18427 0 19268 2936 23232"/>
   <polygon class="fil113" points="503 10633 4848 17410 6760 13153"/>
   <polygon class="fil114" points="4848 17410 2936 23232 12234 16281"/>
   <polygon class="fil115" points="6760 13153 4848 17410 9193 14369"/>
   <polygon class="fil116" points="9193 14369 4848 17410 12234 16281"/>
   <polygon class="fil117" points="9193 14369 10670 4115 6760 13153"/>
   <polygon class="fil118" points="14754 4289 10670 4115 9193 14369"/>
   <polygon class="fil119" points="12234 16281 14754 4289 9193 14369"/>
   <polygon class="fil120" points="2763 4289 0 4550 0 7452 503 10633"/>
   <polygon class="fil121" points="886 0 512 0 0 2439 0 4550 2763 4289"/>
   <polygon class="fil122" points="2763 4289 503 10633 6760 13153"/>
   <polygon class="fil123" points="5031 0 886 0 2763 4289"/>
   <polygon class="fil124" points="10670 4115 2763 4289 6760 13153"/>
   <polygon class="fil125" points="10670 4115 9218 0 5031 0 2763 4289"/>
   <polygon class="fil126" points="0 0 0 2439 512 0"/>
   <polygon class="fil127" points="23444 11849 14754 4289 12234 16281"/>
   <polygon class="fil128" points="12234 16281 19447 18453 23444 11849"/>
   <polygon class="fil129" points="19838 4376 14754 4289 23444 11849"/>
   <polygon class="fil130" points="19447 18453 27441 20626 23444 11849"/>
   <polygon class="fil131" points="28049 5636 19838 4376 23444 11849"/>
   <polygon class="fil132" points="23444 11849 27441 20626 34262 18062"/>
   <polygon class="fil133" points="34262 18062 28049 5636 23444 11849"/>
</svg>
