<?xml version="1.0" encoding="UTF-8"?>
<svg width="86.699mm" height="42.333mm" clip-rule="evenodd" fill-rule="evenodd" image-rendering="optimizeQuality" shape-rendering="geometricPrecision" text-rendering="geometricPrecision" version="1.0" viewBox="0 0 8670 4233" xmlns="http://www.w3.org/2000/svg">
 <defs>
  <style type="text/css">.str0 {stroke:#2B2A29;stroke-width:20} .str3 {stroke:#990099;stroke-width:20;stroke-opacity:0.400000} .str4 {stroke:red;stroke-width:20;stroke-opacity:0.400000} .str5 {stroke:#FF0066;stroke-width:20;stroke-opacity:0.400000} .str2 {stroke:#FF6633;stroke-width:20;stroke-opacity:0.400000} .str1 {stroke:#FFCC00;stroke-width:20;stroke-opacity:0.400000} .fil2 {fill:none} .fil1 {fill:none} .fil0 {fill:black}</style>
  <clipPath id="a">
   <path d="m1463 72h6232v4064h-6232v-4064z"/>
  </clipPath>
 </defs>
 <g clip-path="url(#a)">
  <rect class="fil0 str0" x="1463" y="72" width="6231" height="4064"/>
  <path class="fil1 str1" d="m2188-95c180 145 360 291 424 510 65 218 13 510-34 833-47 324-90 679 2 797s319-2 343-171c24-170-156-388-306-364-150 23-270 289-290 563-19 274 62 557 290 722 227 165 599 212 919 264 319 51 585 107 782 370 197 264 325 735 454 1207"/>
  <path class="fil1 str2" d="m2273-95c180 145 360 291 424 510 64 218 13 510-34 833-47 324-90 679 2 797s319-2 343-171c23-170-157-388-307-364-150 23-270 289-289 563s62 557 289 722 600 212 919 264c320 51 585 107 782 370 198 264 326 735 455 1207"/>
  <path class="fil1 str3" d="m2357-95c180 145 360 291 425 510 64 218 12 510-35 833-47 324-90 679 2 797 93 118 320-2 343-171 24-170-156-388-306-364-150 23-270 289-289 563-20 274 62 557 289 722s600 212 919 264c319 51 585 107 782 370 197 264 326 735 454 1207"/>
  <path class="fil1 str4" d="m2103-95c180 145 360 291 425 510 64 218 12 510-35 833-47 324-90 679 2 797 93 118 320-2 343-171 24-170-156-388-306-364-150 23-270 289-289 563-20 274 62 557 289 722s600 212 919 264c319 51 585 107 782 370 197 264 326 735 454 1207"/>
  <path class="fil1 str5" d="m2442-95c180 145 360 291 424 510 65 218 13 510-34 833-47 324-90 679 2 797s319-2 343-171c24-170-156-388-306-364-150 23-270 289-290 563-19 274 62 557 290 722 227 165 600 212 919 264 319 51 585 107 782 370 197 264 325 735 454 1207"/>
  <path class="fil1 str1" d="m2273-95c180 145 360 291 424 510 64 218 13 510-34 833-47 324-90 679 2 797s319-2 343-171c23-170-157-388-307-364-150 23-270 289-289 563s62 557 289 722 600 212 919 264c320 51 585 107 782 370 198 264 326 735 455 1207"/>
  <path class="fil1 str2" d="m2357-95c180 145 360 291 425 510 64 218 12 510-35 833-47 324-90 679 2 797 93 118 320-2 343-171 24-170-156-388-306-364-150 23-270 289-289 563-20 274 62 557 289 722s600 212 919 264c319 51 585 107 782 370 197 264 326 735 454 1207"/>
  <path class="fil1 str3" d="m2442-95c180 145 360 291 424 510 65 218 13 510-34 833-47 324-90 679 2 797s319-2 343-171c24-170-156-388-306-364-150 23-270 289-290 563-19 274 62 557 290 722 227 165 600 212 919 264 319 51 585 107 782 370 197 264 325 735 454 1207"/>
  <path class="fil1 str4" d="m2188-95c180 145 360 291 424 510 65 218 13 510-34 833-47 324-90 679 2 797s319-2 343-171c24-170-156-388-306-364-150 23-270 289-290 563-19 274 62 557 290 722 227 165 599 212 919 264 319 51 585 107 782 370 197 264 325 735 454 1207"/>
  <path class="fil1 str5" d="m2527-95c180 145 360 291 424 510 64 218 13 510-34 833-47 324-90 679 2 797s319-2 343-171c23-170-157-388-307-364-150 23-270 289-289 563s62 557 289 722 600 212 919 264c320 51 585 107 782 370 198 264 326 735 455 1207"/>
  <path class="fil1 str1" d="m2442-95c180 145 360 291 424 510 65 218 13 510-34 833-47 324-90 679 2 797s319-2 343-171c24-170-156-388-306-364-150 23-270 289-290 563-19 274 62 557 290 722 227 165 600 212 919 264 319 51 585 107 782 370 197 264 325 735 454 1207"/>
  <path class="fil1 str2" d="m2527-95c180 145 360 291 424 510 64 218 13 510-34 833-47 324-90 679 2 797s319-2 343-171c23-170-157-388-307-364-150 23-270 289-289 563s62 557 289 722 600 212 919 264c320 51 585 107 782 370 198 264 326 735 455 1207"/>
  <path class="fil1 str3" d="m2611-95c180 145 360 291 425 510 64 218 12 510-35 833-47 324-90 679 2 797 93 118 320-2 343-171 24-170-156-388-306-364-150 23-270 289-289 563-20 274 62 557 289 722s600 212 919 264c319 51 585 107 782 370 197 264 326 735 454 1207"/>
  <path class="fil1 str4" d="m2357-95c180 145 360 291 425 510 64 218 12 510-35 833-47 324-90 679 2 797 93 118 320-2 343-171 24-170-156-388-306-364-150 23-270 289-289 563-20 274 62 557 289 722s600 212 919 264c319 51 585 107 782 370 197 264 326 735 454 1207"/>
  <path class="fil1 str5" d="m2696-95c180 145 360 291 424 510 65 218 13 510-34 833-47 324-90 679 2 797s319-2 343-171c24-170-156-388-306-364-150 23-270 289-290 563-19 274 62 557 290 722 227 165 600 212 919 264 319 51 585 107 782 370 197 264 325 735 454 1207"/>
  <path class="fil1 str1" d="m6744-95c-180 145-360 291-425 510-64 218-12 510 35 833 47 324 90 679-2 797-93 118-320-2-343-171-24-170 156-388 306-364 150 23 270 289 289 563 20 274-62 557-289 722s-600 212-919 264c-319 51-585 107-782 370-197 264-326 735-454 1207"/>
  <path class="fil1 str2" d="m6659-95c-180 145-360 291-424 510-65 218-13 510 34 833 47 324 90 679-2 797s-319-2-343-171c-24-170 156-388 306-364 150 23 270 289 290 563 19 274-62 557-290 722-227 165-600 212-919 264-319 51-585 107-782 370-197 264-325 735-454 1207"/>
  <path class="fil1 str3" d="m6574-95c-180 145-360 291-424 510-64 218-13 510 34 833 47 324 90 679-2 797s-319-2-343-171c-23-170 157-388 307-364 150 23 270 289 289 563s-62 557-289 722-600 212-919 264c-320 51-585 107-782 370-198 264-326 735-455 1207"/>
  <path class="fil1 str4" d="m6828-95c-180 145-360 291-424 510-64 218-13 510 34 833 47 324 90 679-2 797s-319-2-343-171c-23-170 157-388 307-364 150 23 270 289 289 563s-62 557-289 722-600 212-919 264c-320 51-585 107-782 370-198 264-326 735-455 1207"/>
  <path class="fil1 str5" d="m6490-95c-180 145-360 291-425 510-64 218-12 510 35 833 47 324 90 679-3 797-92 118-319-2-342-171-24-170 156-388 306-364 150 23 270 289 289 563 20 274-62 557-289 722s-600 212-919 264c-319 51-585 107-782 370-197 264-326 735-454 1207"/>
  <path class="fil1 str1" d="m6659-95c-180 145-360 291-424 510-65 218-13 510 34 833 47 324 90 679-2 797s-319-2-343-171c-24-170 156-388 306-364 150 23 270 289 290 563 19 274-62 557-290 722-227 165-600 212-919 264-319 51-585 107-782 370-197 264-325 735-454 1207"/>
  <path class="fil1 str2" d="m6574-95c-180 145-360 291-424 510-64 218-13 510 34 833 47 324 90 679-2 797s-319-2-343-171c-23-170 157-388 307-364 150 23 270 289 289 563s-62 557-289 722-600 212-919 264c-320 51-585 107-782 370-198 264-326 735-455 1207"/>
  <path class="fil1 str3" d="m6490-95c-180 145-360 291-425 510-64 218-12 510 35 833 47 324 90 679-3 797-92 118-319-2-342-171-24-170 156-388 306-364 150 23 270 289 289 563 20 274-62 557-289 722s-600 212-919 264c-319 51-585 107-782 370-197 264-326 735-454 1207"/>
  <path class="fil1 str4" d="m6744-95c-180 145-360 291-425 510-64 218-12 510 35 833 47 324 90 679-2 797-93 118-320-2-343-171-24-170 156-388 306-364 150 23 270 289 289 563 20 274-62 557-289 722s-600 212-919 264c-319 51-585 107-782 370-197 264-326 735-454 1207"/>
  <path class="fil1 str5" d="m6405-95c-180 145-360 291-424 510-65 218-13 510 34 833 47 324 90 679-2 797s-319-2-343-171c-24-170 156-388 306-364 150 23 270 289 290 563 19 274-62 557-290 722-227 165-600 212-919 264-319 51-585 107-782 370-197 264-326 735-454 1207"/>
  <path class="fil1 str1" d="m6490-95c-180 145-360 291-425 510-64 218-12 510 35 833 47 324 90 679-3 797-92 118-319-2-342-171-24-170 156-388 306-364 150 23 270 289 289 563 20 274-62 557-289 722s-600 212-919 264c-319 51-585 107-782 370-197 264-326 735-454 1207"/>
  <path class="fil1 str2" d="m6405-95c-180 145-360 291-424 510-65 218-13 510 34 833 47 324 90 679-2 797s-319-2-343-171c-24-170 156-388 306-364 150 23 270 289 290 563 19 274-62 557-290 722-227 165-600 212-919 264-319 51-585 107-782 370-197 264-326 735-454 1207"/>
  <path class="fil1 str3" d="m6320-95c-180 145-360 291-424 510-64 218-13 510 34 833 47 324 90 679-2 797s-319-2-343-171c-23-170 157-388 307-364 150 23 270 289 289 563s-62 557-289 722-600 212-919 264c-320 51-585 107-783 370-197 264-325 735-454 1207"/>
  <path class="fil1 str4" d="m6574-95c-180 145-360 291-424 510-64 218-13 510 34 833 47 324 90 679-2 797s-319-2-343-171c-23-170 157-388 307-364 150 23 270 289 289 563s-62 557-289 722-600 212-919 264c-320 51-585 107-782 370-198 264-326 735-455 1207"/>
  <path class="fil1 str5" d="m6236-95c-180 145-360 291-425 510-64 218-13 510 35 833 47 324 90 679-3 797-92 118-319-2-342-171-24-170 156-388 306-364 150 23 270 289 289 563 20 274-62 557-289 722s-600 212-919 264c-319 51-585 107-782 370-197 264-326 735-454 1207"/>
 </g>
 <path class="fil2" d="m1463 72h6232v4064h-6232v-4064z"/>
</svg>
